<svg width="139" height="29" viewBox="0 0 139 29" fill="none" xmlns="http://www.w3.org/2000/svg">
<path d="M58.14 8.59233C56.5714 8.59233 55.0683 8.59233 53.5884 8.59233C51.9532 5.76493 49.5581 4.72831 46.2673 5.39374C43.2317 6.00756 41.1454 8.27727 40.7867 11.4894C40.5584 13.5382 40.5593 15.5834 41.4375 17.539C42.7455 20.4488 45.6961 21.7678 49.5082 21.1097C52.163 20.6516 54.1504 18.2786 54.3168 15.2475H48.5755V12.1177H58.6411V24.5554H54.8243C54.7078 23.7279 54.5867 22.8751 54.4684 22.0349C54.3501 22.0277 54.2364 21.9951 54.2151 22.0241C50.8412 26.7509 40.6425 26.0139 37.5726 19.2691C35.7304 15.2213 35.7156 11.1201 37.6974 7.15282C39.9788 2.58625 45.4936 0.440581 51.0307 1.73161C54.4961 2.54008 56.918 4.47481 58.0624 7.82007C58.1123 7.96673 58.1474 8.11883 58.1733 8.27093C58.1872 8.34064 58.1613 8.41488 58.14 8.59233Z" fill="white"/>
<path d="M131.567 17.5732H119.274C119.178 19.3505 120.182 20.7792 121.858 21.3315C123.907 22.007 125.56 21.4239 126.989 19.518H131.029C130.889 22.5421 126.813 25.2547 122.846 24.9849C117.5 24.6218 114.394 20.8354 114.924 15.3287C115.372 10.6613 119.581 7.53039 124.631 8.10623C129.364 8.64676 132.336 12.6242 131.567 17.5732ZM119.276 14.837H127.294C127.208 12.8904 125.818 11.5857 123.769 11.4744C121.359 11.3431 119.594 12.6432 119.276 14.837Z" fill="white"/>
<path d="M77.3135 17.5868H64.8852C65.0322 19.5805 66.0315 20.8643 67.7656 21.3705C69.7918 21.9617 71.2801 21.4148 72.7369 19.4981C73.3969 19.4981 74.1087 19.4981 74.8205 19.4981C75.4906 19.4981 76.1608 19.4981 76.8439 19.4981C76.085 23.337 71.6896 25.6947 67.0649 24.8074C62.4449 23.921 59.8197 19.6393 60.7745 14.5446C61.5926 10.176 66.0361 7.31125 70.7088 8.1397C75.3224 8.95819 78.1131 12.8632 77.3135 17.5868ZM73.0762 14.8379C72.7785 12.6025 71.4095 11.4752 69.1522 11.4617C66.8708 11.4481 64.9241 13.1394 65.0563 14.8379H73.0762Z" fill="white"/>
<path d="M113.906 1.18797V4.43372C112.926 4.7515 111.662 4.79949 111.145 5.42962C110.611 6.08239 110.803 7.30012 110.661 8.40557H114.238V11.9347H110.785V24.5601H106.492V12.0189L104.243 11.8795V8.46623H106.361C106.615 6.13943 106.055 3.65329 108.355 2.11688C110.026 1.00147 111.94 1.08476 113.906 1.18797Z" fill="white"/>
<path d="M81.2539 4.17871H85.0189V8.36442H89.4087V11.9055H85.1085C85.1085 14.6036 85.0715 17.1831 85.127 19.7608C85.1483 20.7486 86.02 20.9731 86.8325 21.042C87.6506 21.1108 88.4788 21.0573 89.3542 21.0573V24.6763C87.804 24.5884 86.2548 24.6401 84.761 24.3865C82.1588 23.9456 80.8943 22.4988 80.8074 19.9256C80.7205 17.337 80.788 14.7439 80.788 12.0132L77.9751 11.8819V8.43685H80.7094C80.8961 6.98457 81.0708 5.6165 81.2539 4.17871Z" fill="white"/>
<path d="M6.6958 27.4211C7.99085 27.1558 9.79061 27.1829 11.0311 26.7647C13.6249 25.891 15.5939 24.1354 17.1339 21.9852C20.909 16.7132 22.9057 10.8156 23.3004 4.40917C23.354 3.53277 22.291 1.10365 22.0645 0C22.9011 1.16884 24.6047 4.32044 24.9116 5.69571C26.3564 12.1737 25.1538 18.1998 21.1937 23.6312C18.1017 27.8719 13.8847 29.1766 8.76918 27.9806C8.22934 27.8538 7.23379 27.5523 6.6958 27.4211Z" fill="white"/>
<path d="M95.72 1.22656H91.5649V24.5513H95.72V1.22656Z" fill="white"/>
<path d="M102.885 8.47363H98.6914V24.542H102.885V8.47363Z" fill="white"/>
<path d="M135.55 24.8342C134.064 24.855 132.88 23.8292 132.83 22.4756C132.776 21.0224 133.883 19.9477 135.452 19.9323C137.03 19.916 138.187 20.9509 138.19 22.3805C138.193 23.706 137.001 24.8133 135.55 24.8342Z" fill="white"/>
<path d="M100.821 1.1471C102.303 1.15887 103.486 2.24162 103.463 3.5661C103.44 4.91411 102.289 5.93621 100.776 5.95341C99.2232 5.97061 98.0668 4.89419 98.1029 3.46651C98.138 2.09858 99.2676 1.13442 100.821 1.1471Z" fill="white"/>
<path d="M8.18946 25.0698C4.47624 24.886 0.57352 22.5755 0.0604905 18.9738C-0.180772 17.2753 0.324864 15.68 1.12907 14.1961C2.84379 11.0327 5.38213 8.51842 8.2024 6.32919C10.3248 4.68139 12.6903 3.32059 15.0104 1.93082C15.761 1.48175 16.6937 1.27894 17.571 1.08337C19.3347 0.690436 20.59 1.49804 20.6639 3.26627C20.7407 5.09062 20.7786 6.98289 20.3774 8.74658C19.3717 13.1712 17.9232 17.4609 14.9873 21.1106C13.2014 23.3306 11.007 24.8498 8.18946 25.0698ZM10.396 10.637C7.46383 10.6407 4.74338 13.3025 4.76465 16.1472C4.78128 18.3917 6.5755 20.1572 8.81989 20.1364C11.7797 20.1083 14.4946 17.4863 14.4993 14.6497C14.5039 12.2821 12.8187 10.6343 10.396 10.637Z" fill="white" fill-opacity="0.6"/>
<path d="M10.4385 13.5353C9.07879 13.9345 7.8771 14.4568 7.7671 16.0817C7.74861 16.356 7.52584 16.5769 7.2476 16.6131C6.91667 16.6556 6.61347 16.4266 6.57003 16.1025C6.41289 14.9085 7.08676 13.5452 8.15996 12.9324C9.08433 12.4046 9.7961 12.2064 10.4441 12.4092C11.007 12.5857 11.0033 13.3696 10.4385 13.5353Z" fill="white"/>
</svg>
