<svg width="545" height="552" viewBox="0 0 545 552" fill="none" xmlns="http://www.w3.org/2000/svg">
    <rect x="17" y="229" width="90" height="135" rx="10" fill="#31D0AA"/>
    <rect x="123" y="184" width="90" height="181" rx="10" fill="#E6F2E6"/>
    <rect x="441" y="94" width="90" height="270" rx="10" fill="#E6F2E6"/>
    <rect x="335" y="153" width="90" height="211" rx="10" fill="#E6F2E6"/>
    <rect x="229" y="167" width="90" height="197" rx="10" fill="#E6F2E6"/>
    <path d="M43.302 409.224h2.368v4.544a6.751 6.751 0 0 1-2.112 1.056 8.21 8.21 0 0 1-2.416.368c-1.162 0-2.208-.245-3.136-.736a5.668 5.668 0 0 1-2.192-2.064c-.522-.885-.784-1.883-.784-2.992s.262-2.101.784-2.976a5.498 5.498 0 0 1 2.208-2.064c.939-.501 1.995-.752 3.168-.752.982 0 1.872.165 2.672.496.8.331 1.472.811 2.016 1.44l-1.664 1.536c-.8-.843-1.765-1.264-2.896-1.264-.714 0-1.35.149-1.904.448-.554.299-.986.72-1.296 1.264-.31.544-.464 1.168-.464 1.872 0 .693.155 1.312.464 1.856.31.544.736.971 1.28 1.28.555.299 1.184.448 1.888.448.747 0 1.419-.16 2.016-.48v-3.28zm13.032 1.504c0 .032-.016.256-.048.672h-6.512c.117.533.395.955.832 1.264.437.309.981.464 1.632.464.448 0 .843-.064 1.184-.192.352-.139.677-.352.976-.64l1.328 1.44c-.81.928-1.995 1.392-3.552 1.392-.97 0-1.83-.187-2.576-.56-.747-.384-1.323-.912-1.728-1.584s-.608-1.435-.608-2.288c0-.843.197-1.6.592-2.272a4.196 4.196 0 0 1 1.648-1.584c.704-.384 1.488-.576 2.352-.576.843 0 1.605.181 2.288.544a3.905 3.905 0 0 1 1.6 1.568c.395.672.592 1.456.592 2.352zm-4.464-2.576c-.565 0-1.04.16-1.424.48-.384.32-.619.757-.704 1.312h4.24c-.085-.544-.32-.976-.704-1.296-.384-.331-.853-.496-1.408-.496zm11.678 6.432c-.246.181-.55.32-.912.416a4.759 4.759 0 0 1-1.12.128c-1.024 0-1.819-.261-2.384-.784-.555-.523-.832-1.291-.832-2.304v-3.536h-1.328v-1.92H58.3v-2.096h2.496v2.096h2.144v1.92h-2.144v3.504c0 .363.09.645.272.848.192.192.458.288.8.288.394 0 .73-.107 1.008-.32l.672 1.76zm1.4-11.456h2.497V415h-2.496v-11.872zm4.813 3.264h2.496V415h-2.496v-8.608zm1.248-1.2c-.458 0-.832-.133-1.12-.4a1.297 1.297 0 0 1-.432-.992c0-.395.144-.725.432-.992.288-.267.662-.4 1.12-.4.459 0 .832.128 1.12.384.288.256.432.576.432.96 0 .416-.144.763-.432 1.04-.288.267-.661.4-1.12.4zm6.3 1.392h2.209v1.92h-2.144V415h-2.496v-6.496H73.55v-1.92h1.328v-.384c0-.981.288-1.76.864-2.336.587-.576 1.408-.864 2.464-.864.373 0 .725.043 1.056.128.341.075.624.187.848.336l-.656 1.808a1.705 1.705 0 0 0-1.008-.304c-.757 0-1.136.416-1.136 1.248v.368zm11.775 4.144c0 .032-.016.256-.048.672h-6.512c.117.533.395.955.832 1.264.437.309.981.464 1.632.464.448 0 .843-.064 1.184-.192.352-.139.677-.352.976-.64l1.328 1.44c-.81.928-1.995 1.392-3.552 1.392-.97 0-1.83-.187-2.576-.56-.747-.384-1.323-.912-1.728-1.584s-.608-1.435-.608-2.288c0-.843.197-1.6.592-2.272a4.196 4.196 0 0 1 1.648-1.584c.704-.384 1.488-.576 2.352-.576.843 0 1.605.181 2.288.544a3.905 3.905 0 0 1 1.6 1.568c.395.672.592 1.456.592 2.352zm-4.464-2.576c-.565 0-1.04.16-1.424.48-.384.32-.619.757-.704 1.312h4.24c-.085-.544-.32-.976-.704-1.296-.384-.331-.853-.496-1.408-.496zM34.983 194.8V206H33.83v-10.176h-2.64V194.8h3.792zm7.317 4.496c.736 0 1.387.139 1.952.416a3.159 3.159 0 0 1 1.344 1.184c.32.501.48 1.088.48 1.76 0 .683-.165 1.285-.496 1.808-.33.523-.79.928-1.376 1.216-.576.277-1.227.416-1.952.416-1.483 0-2.619-.485-3.408-1.456-.79-.981-1.184-2.363-1.184-4.144 0-1.248.214-2.304.64-3.168.427-.864 1.024-1.515 1.792-1.952.768-.448 1.664-.672 2.688-.672 1.11 0 1.995.203 2.656.608l-.464.928c-.533-.352-1.258-.528-2.176-.528-1.237 0-2.208.395-2.912 1.184-.704.779-1.056 1.915-1.056 3.408 0 .267.016.571.048.912a2.98 2.98 0 0 1 1.328-1.408c.608-.341 1.307-.512 2.096-.512zm-.096 5.824c.81 0 1.467-.219 1.968-.656.512-.448.768-1.04.768-1.776s-.256-1.323-.768-1.76c-.501-.437-1.184-.656-2.048-.656-.565 0-1.067.107-1.504.32a2.534 2.534 0 0 0-1.008.88 2.222 2.222 0 0 0-.368 1.248c0 .427.112.821.336 1.184.235.363.576.656 1.024.88.448.224.982.336 1.6.336zm11.622-4.992c.704.235 1.243.587 1.616 1.056.384.469.576 1.035.576 1.696 0 .651-.176 1.221-.528 1.712-.352.48-.858.853-1.52 1.12-.65.256-1.419.384-2.304.384-1.344 0-2.4-.288-3.168-.864-.768-.576-1.152-1.36-1.152-2.352 0-.672.182-1.237.544-1.696.373-.469.912-.821 1.616-1.056-.576-.224-1.013-.544-1.312-.96-.299-.427-.448-.928-.448-1.504 0-.907.352-1.627 1.056-2.16.715-.533 1.67-.8 2.864-.8.79 0 1.478.123 2.064.368.598.235 1.062.576 1.392 1.024.33.448.496.971.496 1.568 0 .576-.154 1.077-.464 1.504-.31.416-.752.736-1.328.96zm-4.928-2.432c0 .619.245 1.109.736 1.472.49.363 1.168.544 2.032.544.864 0 1.542-.181 2.032-.544.502-.363.752-.848.752-1.456 0-.629-.256-1.125-.768-1.488-.501-.363-1.173-.544-2.016-.544-.853 0-1.53.181-2.032.544-.49.363-.736.853-.736 1.472zm2.768 7.424c.992 0 1.766-.203 2.32-.608.566-.405.848-.955.848-1.648s-.283-1.237-.848-1.632c-.554-.405-1.328-.608-2.32-.608-.981 0-1.755.203-2.32.608-.554.395-.832.939-.832 1.632 0 .704.277 1.259.832 1.664.555.395 1.328.592 2.32.592zm6.984-.784c.245 0 .447.085.608.256.16.16.24.363.24.608 0 .128-.022.267-.064.416a3.42 3.42 0 0 1-.16.512l-.672 2.208h-.768l.543-2.32a.817.817 0 0 1-.416-.288.883.883 0 0 1-.16-.528c0-.245.08-.448.24-.608a.796.796 0 0 1 .609-.256zm5.454-4.944c1.621 0 2.8.293 3.536.88.747.576 1.12 1.387 1.12 2.432 0 .651-.154 1.232-.464 1.744-.299.512-.752.917-1.36 1.216-.608.288-1.355.432-2.24.432-.8 0-1.563-.128-2.288-.384-.715-.267-1.29-.619-1.728-1.056l.56-.912c.373.384.864.699 1.472.944a5.412 5.412 0 0 0 1.968.352c.928 0 1.643-.208 2.144-.624.512-.416.768-.971.768-1.664 0-.768-.288-1.349-.864-1.744-.565-.395-1.525-.592-2.88-.592h-2.384l.576-5.616h6.128v1.024h-5.12l-.384 3.568h1.44zm15.639 3.664h-2.24V206H76.35v-2.944h-6.32v-.832l5.936-7.424h1.28l-5.728 7.232h4.864v-2.592h1.12v2.592h2.24v1.024zm8.462 1.984c1.333 0 2.432-.448 3.296-1.344l.768.752a4.829 4.829 0 0 1-1.808 1.232 6.283 6.283 0 0 1-2.32.416 6.252 6.252 0 0 1-2.576-.528 5.728 5.728 0 0 1-2-1.504 5.395 5.395 0 0 1-1.104-2.208h-1.856v-.704h1.728a5.805 5.805 0 0 1 0-1.504h-1.728v-.704h1.856a5.395 5.395 0 0 1 1.104-2.208 5.558 5.558 0 0 1 2-1.488 6.09 6.09 0 0 1 2.576-.544c.843 0 1.616.139 2.32.416a4.922 4.922 0 0 1 1.808 1.216l-.768.752c-.875-.885-1.973-1.328-3.296-1.328-1.088 0-2.043.293-2.864.88a4.327 4.327 0 0 0-1.648 2.304h5.488v.704h-5.664a5.805 5.805 0 0 0 0 1.504h5.664v.704h-5.488a4.327 4.327 0 0 0 1.648 2.304c.821.587 1.776.88 2.864.88zM140.878 154.976V156h-7.856v-.816l4.656-4.56c.587-.576.982-1.072 1.184-1.488.214-.427.32-.853.32-1.28 0-.661-.229-1.173-.688-1.536-.448-.373-1.093-.56-1.936-.56-1.312 0-2.33.416-3.056 1.248l-.816-.704a4.31 4.31 0 0 1 1.664-1.184c.683-.277 1.451-.416 2.304-.416 1.142 0 2.043.272 2.704.816.672.533 1.008 1.269 1.008 2.208a3.8 3.8 0 0 1-.384 1.664c-.256.533-.741 1.147-1.456 1.84l-3.808 3.744h6.16zm9.094 0V156h-7.856v-.816l4.656-4.56c.587-.576.982-1.072 1.184-1.488.214-.427.32-.853.32-1.28 0-.661-.229-1.173-.688-1.536-.448-.373-1.093-.56-1.936-.56-1.312 0-2.33.416-3.056 1.248l-.816-.704a4.31 4.31 0 0 1 1.664-1.184c.683-.277 1.451-.416 2.304-.416 1.142 0 2.043.272 2.704.816.672.533 1.008 1.269 1.008 2.208a3.8 3.8 0 0 1-.384 1.664c-.256.533-.741 1.147-1.456 1.84l-3.808 3.744h6.16zm4.55-10.176V156h-1.152v-10.176h-2.64V144.8h3.792zm3.557 9.536c.246 0 .448.085.608.256.16.16.24.363.24.608 0 .128-.021.267-.064.416-.032.149-.085.32-.16.512l-.672 2.208h-.768l.544-2.32a.82.82 0 0 1-.416-.288.888.888 0 0 1-.16-.528c0-.245.08-.448.24-.608a.797.797 0 0 1 .608-.256zm6.803 1.76c-.864 0-1.637-.229-2.32-.688-.672-.459-1.2-1.115-1.584-1.968-.373-.864-.56-1.877-.56-3.04s.187-2.171.56-3.024c.384-.864.912-1.525 1.584-1.984.683-.459 1.456-.688 2.32-.688.864 0 1.632.229 2.304.688.683.459 1.216 1.12 1.6 1.984.384.853.576 1.861.576 3.024s-.192 2.176-.576 3.04c-.384.853-.917 1.509-1.6 1.968-.672.459-1.44.688-2.304.688zm0-1.056c.651 0 1.221-.181 1.712-.544.501-.363.891-.891 1.168-1.584.277-.693.416-1.531.416-2.512 0-.981-.139-1.819-.416-2.512-.277-.693-.667-1.221-1.168-1.584-.491-.363-1.061-.544-1.712-.544s-1.227.181-1.728.544c-.491.363-.875.891-1.152 1.584-.277.693-.416 1.531-.416 2.512 0 .981.139 1.819.416 2.512.277.693.661 1.221 1.152 1.584a2.869 2.869 0 0 0 1.728.544zm10.594 1.056c-.864 0-1.638-.229-2.32-.688-.672-.459-1.2-1.115-1.584-1.968-.374-.864-.56-1.877-.56-3.04s.186-2.171.56-3.024c.384-.864.912-1.525 1.584-1.984.682-.459 1.456-.688 2.32-.688.864 0 1.632.229 2.304.688.682.459 1.216 1.12 1.6 1.984.384.853.576 1.861.576 3.024s-.192 2.176-.576 3.04c-.384.853-.918 1.509-1.6 1.968-.672.459-1.44.688-2.304.688zm0-1.056c.65 0 1.221-.181 1.712-.544.501-.363.89-.891 1.168-1.584.277-.693.416-1.531.416-2.512 0-.981-.139-1.819-.416-2.512-.278-.693-.667-1.221-1.168-1.584-.491-.363-1.062-.544-1.712-.544-.651 0-1.227.181-1.728.544-.491.363-.875.891-1.152 1.584-.278.693-.416 1.531-.416 2.512 0 .981.138 1.819.416 2.512.277.693.661 1.221 1.152 1.584a2.869 2.869 0 0 0 1.728.544zm13.377 0c1.334 0 2.432-.448 3.296-1.344l.768.752a4.826 4.826 0 0 1-1.808 1.232 6.282 6.282 0 0 1-2.32.416 6.255 6.255 0 0 1-2.576-.528 5.731 5.731 0 0 1-2-1.504 5.402 5.402 0 0 1-1.104-2.208h-1.856v-.704h1.728a5.805 5.805 0 0 1 0-1.504h-1.728v-.704h1.856a5.402 5.402 0 0 1 1.104-2.208 5.56 5.56 0 0 1 2-1.488 6.092 6.092 0 0 1 2.576-.544c.843 0 1.616.139 2.32.416a4.92 4.92 0 0 1 1.808 1.216l-.768.752c-.874-.885-1.973-1.328-3.296-1.328-1.088 0-2.042.293-2.864.88a4.33 4.33 0 0 0-1.648 2.304h5.488v.704h-5.664a5.805 5.805 0 0 0 0 1.504h5.664v.704h-5.488a4.33 4.33 0 0 0 1.648 2.304c.822.587 1.776.88 2.864.88zM248.769 137.976V139h-7.856v-.816l4.656-4.56c.587-.576.981-1.072 1.184-1.488.213-.427.32-.853.32-1.28 0-.661-.229-1.173-.688-1.536-.448-.373-1.093-.56-1.936-.56-1.312 0-2.331.416-3.056 1.248l-.816-.704a4.302 4.302 0 0 1 1.664-1.184c.683-.277 1.451-.416 2.304-.416 1.141 0 2.043.272 2.704.816.672.533 1.008 1.269 1.008 2.208a3.8 3.8 0 0 1-.384 1.664c-.256.533-.741 1.147-1.456 1.84l-3.808 3.744h6.16zm10.591-1.92h-2.24V139h-1.152v-2.944h-6.32v-.832l5.936-7.424h1.28l-5.728 7.232H256v-2.592h1.12v2.592h2.24v1.024zm10.578 0h-2.24V139h-1.152v-2.944h-6.32v-.832l5.936-7.424h1.28l-5.728 7.232h4.864v-2.592h1.12v2.592h2.24v1.024zm2.251 1.28c.245 0 .448.085.608.256.16.16.24.363.24.608 0 .128-.022.267-.064.416-.032.149-.086.32-.16.512l-.672 2.208h-.768l.544-2.32a.812.812 0 0 1-.416-.288.88.88 0 0 1-.16-.528c0-.245.08-.448.24-.608a.795.795 0 0 1 .608-.256zm6.802 1.76c-.864 0-1.637-.229-2.32-.688-.672-.459-1.2-1.115-1.584-1.968-.373-.864-.56-1.877-.56-3.04s.187-2.171.56-3.024c.384-.864.912-1.525 1.584-1.984.683-.459 1.456-.688 2.32-.688.864 0 1.632.229 2.304.688.683.459 1.216 1.12 1.6 1.984.384.853.576 1.861.576 3.024s-.192 2.176-.576 3.04c-.384.853-.917 1.509-1.6 1.968-.672.459-1.44.688-2.304.688zm0-1.056c.651 0 1.222-.181 1.712-.544.502-.363.891-.891 1.168-1.584.278-.693.416-1.531.416-2.512 0-.981-.138-1.819-.416-2.512-.277-.693-.666-1.221-1.168-1.584-.49-.363-1.061-.544-1.712-.544-.65 0-1.226.181-1.728.544-.49.363-.874.891-1.152 1.584-.277.693-.416 1.531-.416 2.512 0 .981.139 1.819.416 2.512.278.693.662 1.221 1.152 1.584a2.873 2.873 0 0 0 1.728.544zm10.594 1.056c-.864 0-1.637-.229-2.32-.688-.672-.459-1.2-1.115-1.584-1.968-.373-.864-.56-1.877-.56-3.04s.187-2.171.56-3.024c.384-.864.912-1.525 1.584-1.984.683-.459 1.456-.688 2.32-.688.864 0 1.632.229 2.304.688.683.459 1.216 1.12 1.6 1.984.384.853.576 1.861.576 3.024s-.192 2.176-.576 3.04c-.384.853-.917 1.509-1.6 1.968-.672.459-1.44.688-2.304.688zm0-1.056c.651 0 1.221-.181 1.712-.544.501-.363.891-.891 1.168-1.584.277-.693.416-1.531.416-2.512 0-.981-.139-1.819-.416-2.512-.277-.693-.667-1.221-1.168-1.584-.491-.363-1.061-.544-1.712-.544s-1.227.181-1.728.544c-.491.363-.875.891-1.152 1.584-.277.693-.416 1.531-.416 2.512 0 .981.139 1.819.416 2.512.277.693.661 1.221 1.152 1.584a2.869 2.869 0 0 0 1.728.544zm13.378 0c1.333 0 2.432-.448 3.296-1.344l.768.752a4.834 4.834 0 0 1-1.808 1.232 6.286 6.286 0 0 1-2.32.416 6.251 6.251 0 0 1-2.576-.528 5.722 5.722 0 0 1-2-1.504 5.378 5.378 0 0 1-1.104-2.208h-1.856v-.704h1.728a5.805 5.805 0 0 1 0-1.504h-1.728v-.704h1.856a5.378 5.378 0 0 1 1.104-2.208 5.552 5.552 0 0 1 2-1.488 6.09 6.09 0 0 1 2.576-.544c.842 0 1.616.139 2.32.416a4.928 4.928 0 0 1 1.808 1.216l-.768.752c-.875-.885-1.974-1.328-3.296-1.328-1.088 0-2.043.293-2.864.88a4.325 4.325 0 0 0-1.648 2.304h5.488v.704h-5.664a5.805 5.805 0 0 0 0 1.504h5.664v.704h-5.488a4.325 4.325 0 0 0 1.648 2.304c.821.587 1.776.88 2.864.88zM356.293 123.976V125h-7.856v-.816l4.656-4.56c.586-.576.981-1.072 1.184-1.488.213-.427.32-.853.32-1.28 0-.661-.23-1.173-.688-1.536-.448-.373-1.094-.56-1.936-.56-1.312 0-2.331.416-3.056 1.248l-.816-.704a4.302 4.302 0 0 1 1.664-1.184c.682-.277 1.45-.416 2.304-.416 1.141 0 2.042.272 2.704.816.672.533 1.008 1.269 1.008 2.208a3.8 3.8 0 0 1-.384 1.664c-.256.533-.742 1.147-1.456 1.84l-3.808 3.744h6.16zm4.389-5.584c1.622 0 2.8.293 3.536.88.747.576 1.12 1.387 1.12 2.432 0 .651-.154 1.232-.464 1.744-.298.512-.752.917-1.36 1.216-.608.288-1.354.432-2.24.432-.8 0-1.562-.128-2.288-.384-.714-.267-1.29-.619-1.728-1.056l.56-.912c.374.384.864.699 1.472.944a5.412 5.412 0 0 0 1.968.352c.928 0 1.643-.208 2.144-.624.512-.416.768-.971.768-1.664 0-.768-.288-1.349-.864-1.744-.565-.395-1.525-.592-2.88-.592h-2.384l.576-5.616h6.128v1.024h-5.12l-.384 3.568h1.44zm8.985 0c1.621 0 2.8.293 3.536.88.746.576 1.12 1.387 1.12 2.432 0 .651-.155 1.232-.464 1.744-.299.512-.752.917-1.36 1.216-.608.288-1.355.432-2.24.432-.8 0-1.563-.128-2.288-.384-.715-.267-1.291-.619-1.728-1.056l.56-.912c.373.384.864.699 1.472.944a5.412 5.412 0 0 0 1.968.352c.928 0 1.642-.208 2.144-.624.512-.416.768-.971.768-1.664 0-.768-.288-1.349-.864-1.744-.566-.395-1.526-.592-2.88-.592h-2.384l.576-5.616h6.128v1.024h-5.12l-.384 3.568h1.44zm6.998 4.944c.245 0 .448.085.608.256.16.16.24.363.24.608 0 .128-.021.267-.064.416-.032.149-.085.32-.16.512l-.672 2.208h-.768l.544-2.32a.817.817 0 0 1-.416-.288.88.88 0 0 1-.16-.528c0-.245.08-.448.24-.608a.797.797 0 0 1 .608-.256zm6.803 1.76c-.864 0-1.637-.229-2.32-.688-.672-.459-1.2-1.115-1.584-1.968-.373-.864-.56-1.877-.56-3.04s.187-2.171.56-3.024c.384-.864.912-1.525 1.584-1.984.683-.459 1.456-.688 2.32-.688.864 0 1.632.229 2.304.688.683.459 1.216 1.12 1.6 1.984.384.853.576 1.861.576 3.024s-.192 2.176-.576 3.04c-.384.853-.917 1.509-1.6 1.968-.672.459-1.44.688-2.304.688zm0-1.056c.651 0 1.221-.181 1.712-.544.501-.363.891-.891 1.168-1.584.277-.693.416-1.531.416-2.512 0-.981-.139-1.819-.416-2.512-.277-.693-.667-1.221-1.168-1.584-.491-.363-1.061-.544-1.712-.544s-1.227.181-1.728.544c-.491.363-.875.891-1.152 1.584-.277.693-.416 1.531-.416 2.512 0 .981.139 1.819.416 2.512.277.693.661 1.221 1.152 1.584a2.869 2.869 0 0 0 1.728.544zm10.594 1.056c-.864 0-1.638-.229-2.32-.688-.672-.459-1.2-1.115-1.584-1.968-.374-.864-.56-1.877-.56-3.04s.186-2.171.56-3.024c.384-.864.912-1.525 1.584-1.984.682-.459 1.456-.688 2.32-.688.864 0 1.632.229 2.304.688.682.459 1.216 1.12 1.6 1.984.384.853.576 1.861.576 3.024s-.192 2.176-.576 3.04c-.384.853-.918 1.509-1.6 1.968-.672.459-1.44.688-2.304.688zm0-1.056c.65 0 1.221-.181 1.712-.544.501-.363.89-.891 1.168-1.584.277-.693.416-1.531.416-2.512 0-.981-.139-1.819-.416-2.512-.278-.693-.667-1.221-1.168-1.584-.491-.363-1.062-.544-1.712-.544-.651 0-1.227.181-1.728.544-.491.363-.875.891-1.152 1.584-.278.693-.416 1.531-.416 2.512 0 .981.138 1.819.416 2.512.277.693.661 1.221 1.152 1.584a2.869 2.869 0 0 0 1.728.544zm13.377 0c1.334 0 2.432-.448 3.296-1.344l.768.752a4.826 4.826 0 0 1-1.808 1.232 6.282 6.282 0 0 1-2.32.416 6.255 6.255 0 0 1-2.576-.528 5.731 5.731 0 0 1-2-1.504 5.402 5.402 0 0 1-1.104-2.208h-1.856v-.704h1.728a5.805 5.805 0 0 1 0-1.504h-1.728v-.704h1.856a5.402 5.402 0 0 1 1.104-2.208 5.56 5.56 0 0 1 2-1.488 6.092 6.092 0 0 1 2.576-.544c.843 0 1.616.139 2.32.416a4.92 4.92 0 0 1 1.808 1.216l-.768.752c-.874-.885-1.973-1.328-3.296-1.328-1.088 0-2.042.293-2.864.88a4.33 4.33 0 0 0-1.648 2.304h5.488v.704h-5.664a5.805 5.805 0 0 0 0 1.504h5.664v.704h-5.488a4.33 4.33 0 0 0 1.648 2.304c.822.587 1.776.88 2.864.88zM457.585 59.6c1.174.064 2.064.384 2.672.96.619.565.928 1.307.928 2.224 0 .64-.154 1.21-.464 1.712-.309.49-.768.88-1.376 1.168-.608.288-1.349.432-2.224.432-.81 0-1.578-.128-2.304-.384-.714-.267-1.29-.619-1.728-1.056l.56-.912c.374.384.87.699 1.488.944.619.235 1.28.352 1.984.352.918 0 1.627-.197 2.128-.592.502-.405.752-.96.752-1.664 0-.693-.25-1.237-.752-1.632-.501-.395-1.258-.592-2.272-.592h-.8v-.848l3.104-3.888h-5.728V54.8h7.2v.816l-3.168 3.984zm8.953 0c1.174.064 2.064.384 2.672.96.619.565.928 1.307.928 2.224 0 .64-.154 1.21-.464 1.712-.309.49-.768.88-1.376 1.168-.608.288-1.349.432-2.224.432-.81 0-1.578-.128-2.304-.384-.714-.267-1.29-.619-1.728-1.056l.56-.912c.374.384.87.699 1.488.944.619.235 1.28.352 1.984.352.918 0 1.627-.197 2.128-.592.502-.405.752-.96.752-1.664 0-.693-.25-1.237-.752-1.632-.501-.395-1.258-.592-2.272-.592h-.8v-.848l3.104-3.888h-5.728V54.8h7.2v.816l-3.168 3.984zm14.744 3.456h-2.24V66h-1.152v-2.944h-6.32v-.832l5.936-7.424h1.28l-5.728 7.232h4.864V59.44h1.12v2.592h2.24v1.024zm2.25 1.28c.246 0 .448.085.608.256.16.16.24.363.24.608 0 .128-.021.267-.064.416-.032.15-.085.32-.16.512l-.672 2.208h-.768l.544-2.32a.824.824 0 0 1-.416-.288.889.889 0 0 1-.16-.528c0-.245.08-.448.24-.608a.798.798 0 0 1 .608-.256zm6.803 1.76c-.864 0-1.637-.23-2.32-.688-.672-.459-1.2-1.115-1.584-1.968-.373-.864-.56-1.877-.56-3.04s.187-2.17.56-3.024c.384-.864.912-1.525 1.584-1.984.683-.459 1.456-.688 2.32-.688.864 0 1.632.23 2.304.688.683.459 1.216 1.12 1.6 1.984.384.853.576 1.861.576 3.024s-.192 2.176-.576 3.04c-.384.853-.917 1.51-1.6 1.968-.672.459-1.44.688-2.304.688zm0-1.056c.651 0 1.221-.181 1.712-.544.501-.363.891-.89 1.168-1.584.277-.693.416-1.53.416-2.512 0-.981-.139-1.819-.416-2.512-.277-.693-.667-1.221-1.168-1.584-.491-.363-1.061-.544-1.712-.544a2.87 2.87 0 0 0-1.728.544c-.491.363-.875.89-1.152 1.584-.277.693-.416 1.53-.416 2.512 0 .981.139 1.819.416 2.512.277.693.661 1.221 1.152 1.584a2.87 2.87 0 0 0 1.728.544zm10.594 1.056c-.864 0-1.638-.23-2.32-.688-.672-.459-1.2-1.115-1.584-1.968-.374-.864-.56-1.877-.56-3.04s.186-2.17.56-3.024c.384-.864.912-1.525 1.584-1.984.682-.459 1.456-.688 2.32-.688.864 0 1.632.23 2.304.688.682.459 1.216 1.12 1.6 1.984.384.853.576 1.861.576 3.024s-.192 2.176-.576 3.04c-.384.853-.918 1.51-1.6 1.968-.672.459-1.44.688-2.304.688zm0-1.056c.65 0 1.221-.181 1.712-.544.501-.363.89-.89 1.168-1.584.277-.693.416-1.53.416-2.512 0-.981-.139-1.819-.416-2.512-.278-.693-.667-1.221-1.168-1.584-.491-.363-1.062-.544-1.712-.544a2.87 2.87 0 0 0-1.728.544c-.491.363-.875.89-1.152 1.584-.278.693-.416 1.53-.416 2.512 0 .981.138 1.819.416 2.512.277.693.661 1.221 1.152 1.584a2.87 2.87 0 0 0 1.728.544zm13.378 0c1.333 0 2.432-.448 3.296-1.344l.768.752a4.838 4.838 0 0 1-1.808 1.232 6.28 6.28 0 0 1-2.32.416 6.251 6.251 0 0 1-2.576-.528 5.718 5.718 0 0 1-2-1.504 5.378 5.378 0 0 1-1.104-2.208h-1.856v-.704h1.728a5.809 5.809 0 0 1 0-1.504h-1.728v-.704h1.856a5.378 5.378 0 0 1 1.104-2.208 5.552 5.552 0 0 1 2-1.488 6.094 6.094 0 0 1 2.576-.544 6.28 6.28 0 0 1 2.32.416 4.928 4.928 0 0 1 1.808 1.216l-.768.752c-.875-.885-1.974-1.328-3.296-1.328-1.088 0-2.043.293-2.864.88a4.323 4.323 0 0 0-1.648 2.304h5.488v.704h-5.664a5.809 5.809 0 0 0 0 1.504h5.664v.704h-5.488c.288.95.837 1.717 1.648 2.304.821.587 1.776.88 2.864.88z" fill="#152825"/>
    <rect width="125" height="125" rx="25" fill="#104944"/>
    <path d="m61.625 146.25-13.532-23.438h27.064L61.625 146.25z" fill="#104944"/>
    <path d="M33.852 55.6h-5.2L27.66 58h-2.656l4.992-11.2h2.56L37.564 58h-2.72l-.992-2.4zm-.816-1.968-1.776-4.288-1.776 4.288h3.552zM48.998 46.8V58h-2.592v-4.592h-5.088V58h-2.592V46.8h2.592v4.416h5.088V46.8h2.592zm8.074 11.392c-1.162 0-2.213-.25-3.152-.752a5.672 5.672 0 0 1-2.192-2.064c-.522-.885-.784-1.877-.784-2.976s.262-2.085.784-2.96a5.635 5.635 0 0 1 2.192-2.08c.939-.501 1.99-.752 3.152-.752 1.163 0 2.208.25 3.136.752a5.635 5.635 0 0 1 2.192 2.08c.534.875.8 1.861.8 2.96s-.266 2.09-.8 2.976a5.672 5.672 0 0 1-2.192 2.064c-.928.501-1.973.752-3.136.752zm0-2.208c.662 0 1.259-.15 1.792-.448.534-.31.95-.736 1.248-1.28.31-.544.464-1.163.464-1.856 0-.693-.154-1.312-.464-1.856a3.163 3.163 0 0 0-1.248-1.264 3.506 3.506 0 0 0-1.792-.464c-.661 0-1.258.155-1.792.464-.533.299-.954.72-1.264 1.264-.298.544-.448 1.163-.448 1.856 0 .693.15 1.312.448 1.856.31.544.731.97 1.264 1.28.534.299 1.131.448 1.792.448zM72.284 58l-2.16-3.12H67.74V58h-2.592V46.8h4.848c.992 0 1.851.165 2.576.496.736.33 1.302.8 1.696 1.408.395.608.592 1.328.592 2.16 0 .832-.202 1.552-.608 2.16-.394.597-.96 1.056-1.696 1.376l2.512 3.6h-2.784zm-.048-7.136c0-.63-.202-1.11-.608-1.44-.405-.341-.997-.512-1.776-.512H67.74v3.904h2.112c.779 0 1.371-.17 1.776-.512.406-.341.608-.821.608-1.44zM84.05 58l-2.16-3.12h-2.384V58h-2.592V46.8h4.848c.992 0 1.85.165 2.576.496.736.33 1.301.8 1.696 1.408.395.608.592 1.328.592 2.16 0 .832-.203 1.552-.608 2.16-.395.597-.96 1.056-1.696 1.376l2.512 3.6H84.05zm-.048-7.136c0-.63-.203-1.11-.608-1.44-.405-.341-.997-.512-1.776-.512h-2.112v3.904h2.112c.779 0 1.37-.17 1.776-.512.405-.341.608-.821.608-1.44zm10.102 7.328c-1.163 0-2.214-.25-3.152-.752a5.672 5.672 0 0 1-2.192-2.064c-.523-.885-.784-1.877-.784-2.976s.26-2.085.784-2.96a5.635 5.635 0 0 1 2.192-2.08c.938-.501 1.989-.752 3.152-.752 1.162 0 2.208.25 3.136.752a5.635 5.635 0 0 1 2.192 2.08c.533.875.8 1.861.8 2.96s-.267 2.09-.8 2.976a5.673 5.673 0 0 1-2.192 2.064c-.928.501-1.974.752-3.136.752zm0-2.208c.66 0 1.258-.15 1.792-.448.533-.31.949-.736 1.248-1.28.309-.544.464-1.163.464-1.856 0-.693-.155-1.312-.464-1.856a3.163 3.163 0 0 0-1.248-1.264 3.507 3.507 0 0 0-1.792-.464c-.662 0-1.26.155-1.792.464-.534.299-.955.72-1.264 1.264-.3.544-.448 1.163-.448 1.856 0 .693.149 1.312.448 1.856.309.544.73.97 1.264 1.28.533.299 1.13.448 1.792.448zM50.26 73.008c1.578 0 2.741.315 3.488.944.757.63 1.136 1.472 1.136 2.528 0 .683-.17 1.307-.512 1.872-.341.555-.864 1.003-1.568 1.344-.694.33-1.552.496-2.576.496-.79 0-1.568-.101-2.336-.304-.758-.213-1.403-.512-1.936-.896l1.024-1.984c.426.32.917.57 1.472.752.554.17 1.125.256 1.712.256.65 0 1.163-.128 1.536-.384s.56-.613.56-1.072c0-.48-.198-.843-.592-1.088-.384-.245-1.056-.368-2.016-.368h-2.864l.576-6.304h6.832v2.08h-4.672l-.176 2.128h.912zm10.475 7.184c-.927 0-1.754-.23-2.48-.688-.725-.459-1.295-1.12-1.712-1.984-.405-.875-.607-1.915-.607-3.12s.202-2.24.608-3.104c.416-.875.986-1.541 1.712-2 .725-.459 1.552-.688 2.48-.688.927 0 1.754.23 2.48.688.725.459 1.29 1.125 1.695 2 .416.864.624 1.899.624 3.104s-.207 2.245-.624 3.12c-.405.864-.97 1.525-1.696 1.984-.725.459-1.552.688-2.48.688zm0-2.192c.683 0 1.217-.293 1.6-.88.395-.587.593-1.493.593-2.72s-.198-2.133-.593-2.72c-.383-.587-.917-.88-1.6-.88-.671 0-1.205.293-1.6.88-.384.587-.576 1.493-.576 2.72s.192 2.133.576 2.72c.395.587.928.88 1.6.88zm8.652-3.152c-.822 0-1.494-.277-2.016-.832-.512-.565-.768-1.317-.768-2.256 0-.939.256-1.685.768-2.24.522-.565 1.195-.848 2.016-.848s1.488.283 2 .848c.512.555.768 1.301.768 2.24 0 .939-.256 1.69-.768 2.256-.512.555-1.179.832-2 .832zM76.06 68.8h1.904L70.316 80h-1.904l7.648-11.2zm-6.672 4.736c.362 0 .645-.15.848-.448.213-.299.32-.741.32-1.328 0-.587-.107-1.03-.32-1.328a.968.968 0 0 0-.848-.448c-.352 0-.635.155-.848.464-.214.299-.32.736-.32 1.312 0 .576.106 1.019.32 1.328.213.299.496.448.848.448zm7.6 6.592a2.836 2.836 0 0 1-1.44-.368 2.618 2.618 0 0 1-.976-1.088c-.235-.47-.352-1.013-.352-1.632s.117-1.163.352-1.632c.234-.47.56-.827.976-1.072a2.744 2.744 0 0 1 1.44-.384c.821 0 1.488.283 2 .848.522.555.784 1.301.784 2.24 0 .939-.262 1.69-.784 2.256-.512.555-1.179.832-2 .832zm0-1.312c.362 0 .645-.15.848-.448.213-.31.32-.752.32-1.328 0-.576-.107-1.013-.32-1.312a.96.96 0 0 0-.848-.464c-.352 0-.635.15-.848.448-.213.299-.32.741-.32 1.328 0 .587.107 1.03.32 1.328.213.299.496.448.848.448z" fill="#fff"/>
    <path d="m20.744 485.472 1.308.708-.588.984-1.32-.78.024 1.452H19.04l.012-1.464-1.32.792-.576-.984 1.308-.708-1.308-.72.576-.984 1.32.792-.012-1.464h1.128l-.024 1.464 1.32-.792.588.984-1.308.72zm9.49-1.872c.744 0 1.388.124 1.932.372.552.248.976.6 1.272 1.056.296.456.444.996.444 1.62 0 .616-.148 1.156-.444 1.62-.296.456-.72.808-1.272 1.056-.544.24-1.188.36-1.932.36h-1.692V492h-1.944v-8.4h3.636zm-.108 4.5c.584 0 1.028-.124 1.332-.372.304-.256.456-.616.456-1.08 0-.472-.152-.832-.456-1.08-.304-.256-.748-.384-1.332-.384h-1.584v2.916h1.584zm6.8-1.704c.223-.312.523-.548.9-.708.383-.16.823-.24 1.32-.24v1.728a6.756 6.756 0 0 0-.42-.024c-.537 0-.957.152-1.26.456-.305.296-.457.744-.457 1.344V492h-1.872v-6.456h1.788v.852zm9.598 2.4c0 .024-.012.192-.036.504h-4.884c.088.4.296.716.624.948.328.232.736.348 1.224.348.336 0 .632-.048.888-.144a2.23 2.23 0 0 0 .732-.48l.996 1.08c-.608.696-1.496 1.044-2.664 1.044-.728 0-1.372-.14-1.932-.42a3.163 3.163 0 0 1-1.296-1.188 3.257 3.257 0 0 1-.456-1.716c0-.632.148-1.2.444-1.704a3.15 3.15 0 0 1 1.236-1.188 3.623 3.623 0 0 1 1.764-.432 3.6 3.6 0 0 1 1.716.408c.512.272.912.664 1.2 1.176.296.504.444 1.092.444 1.764zm-3.348-1.932c-.424 0-.78.12-1.068.36-.288.24-.464.568-.528.984h3.18c-.064-.408-.24-.732-.528-.972-.288-.248-.64-.372-1.056-.372zm7.714 5.232c-.688 0-1.308-.14-1.86-.42a3.286 3.286 0 0 1-1.284-1.188 3.257 3.257 0 0 1-.456-1.716c0-.64.152-1.212.456-1.716a3.2 3.2 0 0 1 1.284-1.176c.552-.288 1.172-.432 1.86-.432.68 0 1.272.144 1.776.432.512.28.884.684 1.116 1.212l-1.452.78c-.336-.592-.82-.888-1.452-.888-.488 0-.892.16-1.212.48-.32.32-.48.756-.48 1.308s.16.988.48 1.308c.32.32.724.48 1.212.48.64 0 1.124-.296 1.452-.888l1.452.792a2.57 2.57 0 0 1-1.116 1.2c-.504.288-1.096.432-1.776.432zm3.97-6.552h1.872V492H54.86v-6.456zm.936-.9c-.344 0-.624-.1-.84-.3a.973.973 0 0 1-.324-.744c0-.296.108-.544.324-.744.216-.2.496-.3.84-.3s.624.096.84.288a.923.923 0 0 1 .324.72c0 .312-.108.572-.324.78-.216.2-.496.3-.84.3zm5.745 7.452c-.68 0-1.291-.14-1.835-.42a3.22 3.22 0 0 1-1.26-1.188 3.257 3.257 0 0 1-.456-1.716c0-.64.151-1.212.456-1.716a3.135 3.135 0 0 1 1.26-1.176c.543-.288 1.155-.432 1.835-.432.68 0 1.289.144 1.825.432.535.28.956.672 1.26 1.176.303.504.456 1.076.456 1.716 0 .64-.152 1.212-.456 1.716a3.22 3.22 0 0 1-1.26 1.188c-.536.28-1.145.42-1.825.42zm0-1.536c.48 0 .873-.16 1.177-.48.311-.328.467-.764.467-1.308s-.156-.976-.468-1.296c-.303-.328-.695-.492-1.175-.492-.48 0-.877.164-1.189.492-.312.32-.468.752-.468 1.296s.157.98.468 1.308c.313.32.709.48 1.188.48zm6.964 1.536c-.536 0-1.06-.064-1.572-.192-.512-.136-.92-.304-1.224-.504l.624-1.344c.288.184.636.336 1.044.456.408.112.808.168 1.2.168.792 0 1.188-.196 1.188-.588 0-.184-.108-.316-.324-.396-.216-.08-.548-.148-.996-.204a9.609 9.609 0 0 1-1.308-.276 2.071 2.071 0 0 1-.9-.552c-.248-.264-.372-.64-.372-1.128 0-.408.116-.768.348-1.08.24-.32.584-.568 1.032-.744.456-.176.992-.264 1.608-.264.456 0 .908.052 1.356.156.456.096.832.232 1.128.408l-.624 1.332a3.725 3.725 0 0 0-1.86-.48c-.4 0-.7.056-.9.168-.2.112-.3.256-.3.432 0 .2.108.34.324.42.216.08.56.156 1.032.228.528.088.96.184 1.296.288.336.096.628.276.876.54s.372.632.372 1.104c0 .4-.12.756-.36 1.068-.24.312-.592.556-1.056.732-.456.168-1 .252-1.632.252zm11.417-6.648c.6 0 1.144.14 1.632.42.496.272.884.66 1.164 1.164.28.496.42 1.076.42 1.74 0 .664-.14 1.248-.42 1.752-.28.496-.668.884-1.164 1.164a3.295 3.295 0 0 1-1.632.408c-.824 0-1.472-.26-1.944-.78v3.012h-1.872v-8.784h1.788v.744c.464-.56 1.14-.84 2.028-.84zm-.324 5.112c.48 0 .872-.16 1.176-.48.312-.328.468-.764.468-1.308s-.156-.976-.468-1.296c-.304-.328-.696-.492-1.176-.492s-.876.164-1.188.492c-.304.32-.456.752-.456 1.296s.152.98.456 1.308c.312.32.708.48 1.188.48zm7.292-5.112c1 0 1.768.24 2.304.72.536.472.804 1.188.804 2.148V492h-1.752v-.804c-.352.6-1.008.9-1.968.9-.496 0-.928-.084-1.296-.252a1.93 1.93 0 0 1-.828-.696 1.811 1.811 0 0 1-.288-1.008c0-.6.224-1.072.672-1.416.456-.344 1.156-.516 2.1-.516h1.488c0-.408-.124-.72-.372-.936-.248-.224-.62-.336-1.116-.336-.344 0-.684.056-1.02.168a2.603 2.603 0 0 0-.84.432l-.672-1.308c.352-.248.772-.44 1.26-.576a5.737 5.737 0 0 1 1.524-.204zm-.144 5.388c.32 0 .604-.072.852-.216.248-.152.424-.372.528-.66v-.66h-1.284c-.768 0-1.152.252-1.152.756 0 .24.092.432.276.576.192.136.452.204.78.204zm6.734-4.44c.224-.312.524-.548.9-.708.384-.16.824-.24 1.32-.24v1.728a6.756 6.756 0 0 0-.42-.024c-.536 0-.956.152-1.26.456-.304.296-.456.744-.456 1.344V492h-1.872v-6.456h1.788v.852zm5.902-.948c1 0 1.768.24 2.304.72.536.472.804 1.188.804 2.148V492h-1.752v-.804c-.352.6-1.008.9-1.968.9-.496 0-.928-.084-1.296-.252a1.93 1.93 0 0 1-.828-.696 1.811 1.811 0 0 1-.288-1.008c0-.6.224-1.072.672-1.416.456-.344 1.156-.516 2.1-.516h1.488c0-.408-.124-.72-.372-.936-.248-.224-.62-.336-1.116-.336-.344 0-.684.056-1.02.168a2.603 2.603 0 0 0-.84.432l-.672-1.308c.352-.248.772-.44 1.26-.576a5.737 5.737 0 0 1 1.524-.204zm-.144 5.388c.32 0 .604-.072.852-.216.248-.152.424-.372.528-.66v-.66h-1.284c-.768 0-1.152.252-1.152.756 0 .24.092.432.276.576.192.136.452.204.78.204zm14.849-5.292V492h-1.776v-.768c-.248.28-.544.496-.888.648a2.86 2.86 0 0 1-1.116.216c-.848 0-1.52-.244-2.016-.732s-.744-1.212-.744-2.172v-3.648h1.872v3.372c0 1.04.436 1.56 1.308 1.56.448 0 .808-.144 1.08-.432.272-.296.408-.732.408-1.308v-3.192h1.872zm5.658-.096c.8 0 1.444.24 1.932.72.496.48.744 1.192.744 2.136V492h-1.872v-3.408c0-.512-.112-.892-.336-1.14-.224-.256-.548-.384-.972-.384-.472 0-.848.148-1.128.444-.28.288-.42.72-.42 1.296V492h-1.872v-6.456h1.788v.756c.248-.272.556-.48.924-.624a3.145 3.145 0 0 1 1.212-.228zm6.977 0c1 0 1.768.24 2.304.72.536.472.804 1.188.804 2.148V492h-1.752v-.804c-.352.6-1.008.9-1.968.9-.496 0-.928-.084-1.296-.252a1.93 1.93 0 0 1-.828-.696 1.811 1.811 0 0 1-.288-1.008c0-.6.224-1.072.672-1.416.456-.344 1.156-.516 2.1-.516h1.488c0-.408-.124-.72-.372-.936-.248-.224-.62-.336-1.116-.336-.344 0-.684.056-1.02.168a2.603 2.603 0 0 0-.84.432l-.672-1.308c.352-.248.772-.44 1.26-.576a5.737 5.737 0 0 1 1.524-.204zm-.144 5.388c.32 0 .604-.072.852-.216.248-.152.424-.372.528-.66v-.66h-1.284c-.768 0-1.152.252-1.152.756 0 .24.092.432.276.576.192.136.452.204.78.204zm12.161-5.388c.6 0 1.144.14 1.632.42.496.272.884.66 1.164 1.164.28.496.42 1.076.42 1.74 0 .664-.14 1.248-.42 1.752-.28.496-.668.884-1.164 1.164a3.295 3.295 0 0 1-1.632.408c-.824 0-1.472-.26-1.944-.78v3.012h-1.872v-8.784h1.788v.744c.464-.56 1.14-.84 2.028-.84zm-.324 5.112c.48 0 .872-.16 1.176-.48.312-.328.468-.764.468-1.308s-.156-.976-.468-1.296c-.304-.328-.696-.492-1.176-.492s-.876.164-1.188.492c-.304.32-.456.752-.456 1.296s.152.98.456 1.308c.312.32.708.48 1.188.48zm11.117-1.764c0 .024-.012.192-.036.504h-4.884c.088.4.296.716.624.948.328.232.736.348 1.224.348.336 0 .632-.048.888-.144a2.23 2.23 0 0 0 .732-.48l.996 1.08c-.608.696-1.496 1.044-2.664 1.044-.728 0-1.372-.14-1.932-.42a3.163 3.163 0 0 1-1.296-1.188 3.257 3.257 0 0 1-.456-1.716c0-.632.148-1.2.444-1.704a3.15 3.15 0 0 1 1.236-1.188 3.623 3.623 0 0 1 1.764-.432 3.6 3.6 0 0 1 1.716.408c.512.272.912.664 1.2 1.176.296.504.444 1.092.444 1.764zm-3.348-1.932c-.424 0-.78.12-1.068.36-.288.24-.464.568-.528.984h3.18c-.064-.408-.24-.732-.528-.972-.288-.248-.64-.372-1.056-.372zm6.382-.468c.224-.312.524-.548.9-.708.384-.16.824-.24 1.32-.24v1.728a6.756 6.756 0 0 0-.42-.024c-.536 0-.956.152-1.26.456-.304.296-.456.744-.456 1.344V492h-1.872v-6.456h1.788v.852zm5.529 5.7c-.536 0-1.06-.064-1.572-.192-.512-.136-.92-.304-1.224-.504l.624-1.344c.288.184.636.336 1.044.456.408.112.808.168 1.2.168.792 0 1.188-.196 1.188-.588 0-.184-.108-.316-.324-.396-.216-.08-.548-.148-.996-.204a9.609 9.609 0 0 1-1.308-.276 2.071 2.071 0 0 1-.9-.552c-.248-.264-.372-.64-.372-1.128 0-.408.116-.768.348-1.08.24-.32.584-.568 1.032-.744.456-.176.992-.264 1.608-.264.456 0 .908.052 1.356.156.456.096.832.232 1.128.408l-.624 1.332a3.725 3.725 0 0 0-1.86-.48c-.4 0-.7.056-.9.168-.2.112-.3.256-.3.432 0 .2.108.34.324.42.216.08.56.156 1.032.228.528.088.96.184 1.296.288.336.096.628.276.876.54s.372.632.372 1.104c0 .4-.12.756-.36 1.068-.24.312-.592.556-1.056.732-.456.168-1 .252-1.632.252zm7.275 0c-.68 0-1.292-.14-1.836-.42a3.22 3.22 0 0 1-1.26-1.188 3.257 3.257 0 0 1-.456-1.716c0-.64.152-1.212.456-1.716a3.135 3.135 0 0 1 1.26-1.176c.544-.288 1.156-.432 1.836-.432.68 0 1.288.144 1.824.432.536.28.956.672 1.26 1.176.304.504.456 1.076.456 1.716 0 .64-.152 1.212-.456 1.716a3.22 3.22 0 0 1-1.26 1.188c-.536.28-1.144.42-1.824.42zm0-1.536c.48 0 .872-.16 1.176-.48.312-.328.468-.764.468-1.308s-.156-.976-.468-1.296c-.304-.328-.696-.492-1.176-.492s-.876.164-1.188.492c-.312.32-.468.752-.468 1.296s.156.98.468 1.308c.312.32.708.48 1.188.48zm8.715-5.112c.8 0 1.444.24 1.932.72.496.48.744 1.192.744 2.136V492h-1.872v-3.408c0-.512-.112-.892-.336-1.14-.224-.256-.548-.384-.972-.384-.472 0-.848.148-1.128.444-.28.288-.42.72-.42 1.296V492h-1.872v-6.456h1.788v.756c.248-.272.556-.48.924-.624a3.145 3.145 0 0 1 1.212-.228zm6.977 0c1 0 1.768.24 2.304.72.536.472.804 1.188.804 2.148V492h-1.752v-.804c-.352.6-1.008.9-1.968.9-.496 0-.928-.084-1.296-.252a1.93 1.93 0 0 1-.828-.696 1.811 1.811 0 0 1-.288-1.008c0-.6.224-1.072.672-1.416.456-.344 1.156-.516 2.1-.516h1.488c0-.408-.124-.72-.372-.936-.248-.224-.62-.336-1.116-.336-.344 0-.684.056-1.02.168a2.603 2.603 0 0 0-.84.432l-.672-1.308c.352-.248.772-.44 1.26-.576a5.737 5.737 0 0 1 1.524-.204zm-.144 5.388c.32 0 .604-.072.852-.216.248-.152.424-.372.528-.66v-.66h-1.284c-.768 0-1.152.252-1.152.756 0 .24.092.432.276.576.192.136.452.204.78.204zm14.92-7.74V492h-1.788v-.744c-.464.56-1.136.84-2.016.84-.608 0-1.16-.136-1.656-.408a2.932 2.932 0 0 1-1.152-1.164c-.28-.504-.42-1.088-.42-1.752 0-.664.14-1.248.42-1.752.28-.504.664-.892 1.152-1.164a3.387 3.387 0 0 1 1.656-.408c.824 0 1.468.26 1.932.78v-3.132h1.872zm-3.48 7.464c.472 0 .864-.16 1.176-.48.312-.328.468-.764.468-1.308s-.156-.976-.468-1.296a1.555 1.555 0 0 0-1.176-.492c-.48 0-.876.164-1.188.492-.312.32-.468.752-.468 1.296s.156.98.468 1.308c.312.32.708.48 1.188.48zm11.537-1.764c0 .024-.012.192-.036.504h-4.884c.088.4.296.716.624.948.328.232.736.348 1.224.348.336 0 .632-.048.888-.144a2.23 2.23 0 0 0 .732-.48l.996 1.08c-.608.696-1.496 1.044-2.664 1.044-.728 0-1.372-.14-1.932-.42a3.163 3.163 0 0 1-1.296-1.188 3.257 3.257 0 0 1-.456-1.716c0-.632.148-1.2.444-1.704a3.15 3.15 0 0 1 1.236-1.188 3.623 3.623 0 0 1 1.764-.432 3.6 3.6 0 0 1 1.716.408c.512.272.912.664 1.2 1.176.296.504.444 1.092.444 1.764zm-3.348-1.932c-.424 0-.78.12-1.068.36-.288.24-.464.568-.528.984h3.18c-.064-.408-.24-.732-.528-.972-.288-.248-.64-.372-1.056-.372zm15.289 3.372h-1.368V492h-1.896v-1.764h-4.524v-1.308l3.96-5.328h2.04l-3.672 5.052h2.256v-1.572h1.836v1.572h1.368v1.584zm3.438-3.48c1.184 0 2.056.236 2.616.708.568.472.852 1.104.852 1.896 0 .512-.128.98-.384 1.404-.256.416-.648.752-1.176 1.008-.52.248-1.164.372-1.932.372a6.838 6.838 0 0 1-1.752-.228c-.568-.16-1.052-.384-1.452-.672l.768-1.488c.32.24.688.428 1.104.564.416.128.844.192 1.284.192.488 0 .872-.096 1.152-.288a.92.92 0 0 0 .42-.804c0-.36-.148-.632-.444-.816-.288-.184-.792-.276-1.512-.276h-2.148l.432-4.728h5.124v1.56h-3.504l-.132 1.596h.684zm10.655-1.308c1 0 1.768.24 2.304.72.536.472.804 1.188.804 2.148V492h-1.752v-.804c-.352.6-1.008.9-1.968.9-.496 0-.928-.084-1.296-.252a1.93 1.93 0 0 1-.828-.696 1.811 1.811 0 0 1-.288-1.008c0-.6.224-1.072.672-1.416.456-.344 1.156-.516 2.1-.516h1.488c0-.408-.124-.72-.372-.936-.248-.224-.62-.336-1.116-.336-.344 0-.684.056-1.02.168a2.603 2.603 0 0 0-.84.432l-.672-1.308c.352-.248.772-.44 1.26-.576a5.737 5.737 0 0 1 1.524-.204zm-.144 5.388c.32 0 .604-.072.852-.216.248-.152.424-.372.528-.66v-.66h-1.284c-.768 0-1.152.252-1.152.756 0 .24.092.432.276.576.192.136.452.204.78.204zm8.87-5.388c.8 0 1.444.24 1.932.72.496.48.744 1.192.744 2.136V492h-1.872v-3.408c0-.512-.112-.892-.336-1.14-.224-.256-.548-.384-.972-.384-.472 0-.848.148-1.128.444-.28.288-.42.72-.42 1.296V492h-1.872v-6.456h1.788v.756c.248-.272.556-.48.924-.624a3.145 3.145 0 0 1 1.212-.228zm.288-.696c-.216 0-.408-.04-.576-.12a5.39 5.39 0 0 1-.54-.348 2.813 2.813 0 0 0-.324-.216.463.463 0 0 0-.24-.072.514.514 0 0 0-.408.18c-.104.112-.16.276-.168.492h-.948c.016-.536.148-.96.396-1.272.256-.32.592-.48 1.008-.48.208 0 .392.044.552.132.168.08.356.196.564.348.128.096.232.168.312.216a.517.517 0 0 0 .648-.096.72.72 0 0 0 .18-.48h.948c-.016.52-.152.936-.408 1.248-.248.312-.58.468-.996.468zm7.227 7.344c-.68 0-1.292-.14-1.836-.42a3.22 3.22 0 0 1-1.26-1.188 3.257 3.257 0 0 1-.456-1.716c0-.64.152-1.212.456-1.716a3.135 3.135 0 0 1 1.26-1.176c.544-.288 1.156-.432 1.836-.432.68 0 1.288.144 1.824.432.536.28.956.672 1.26 1.176.304.504.456 1.076.456 1.716 0 .64-.152 1.212-.456 1.716a3.22 3.22 0 0 1-1.26 1.188c-.536.28-1.144.42-1.824.42zm0-1.536c.48 0 .872-.16 1.176-.48.312-.328.468-.764.468-1.308s-.156-.976-.468-1.296c-.304-.328-.696-.492-1.176-.492s-.876.164-1.188.492c-.312.32-.468.752-.468 1.296s.156.98.468 1.308c.312.32.708.48 1.188.48zm6.964 1.536c-.536 0-1.06-.064-1.572-.192-.512-.136-.92-.304-1.224-.504l.624-1.344c.288.184.636.336 1.044.456.408.112.808.168 1.2.168.792 0 1.188-.196 1.188-.588 0-.184-.108-.316-.324-.396-.216-.08-.548-.148-.996-.204a9.609 9.609 0 0 1-1.308-.276 2.071 2.071 0 0 1-.9-.552c-.248-.264-.372-.64-.372-1.128 0-.408.116-.768.348-1.08.24-.32.584-.568 1.032-.744.456-.176.992-.264 1.608-.264.456 0 .908.052 1.356.156.456.096.832.232 1.128.408l-.624 1.332a3.725 3.725 0 0 0-1.86-.48c-.4 0-.7.056-.9.168-.2.112-.3.256-.3.432 0 .2.108.34.324.42.216.08.56.156 1.032.228.528.088.96.184 1.296.288.336.096.628.276.876.54s.372.632.372 1.104c0 .4-.12.756-.36 1.068-.24.312-.592.556-1.056.732-.456.168-1 .252-1.632.252zm-232.15 17c-.688 0-1.308-.14-1.86-.42a3.286 3.286 0 0 1-1.284-1.188 3.257 3.257 0 0 1-.456-1.716c0-.64.152-1.212.456-1.716a3.2 3.2 0 0 1 1.284-1.176c.552-.288 1.172-.432 1.86-.432.68 0 1.272.144 1.776.432.512.28.884.684 1.116 1.212l-1.452.78c-.336-.592-.82-.888-1.452-.888-.488 0-.892.16-1.212.48-.32.32-.48.756-.48 1.308s.16.988.48 1.308c.32.32.724.48 1.212.48.64 0 1.124-.296 1.452-.888l1.452.792a2.57 2.57 0 0 1-1.116 1.2c-.504.288-1.096.432-1.776.432zm6.96 0c-.68 0-1.292-.14-1.836-.42a3.22 3.22 0 0 1-1.26-1.188 3.257 3.257 0 0 1-.456-1.716c0-.64.152-1.212.456-1.716a3.135 3.135 0 0 1 1.26-1.176c.544-.288 1.156-.432 1.836-.432.68 0 1.288.144 1.824.432.536.28.956.672 1.26 1.176.304.504.456 1.076.456 1.716 0 .64-.152 1.212-.456 1.716a3.22 3.22 0 0 1-1.26 1.188c-.536.28-1.144.42-1.824.42zm0-1.536c.48 0 .872-.16 1.176-.48.312-.328.468-.764.468-1.308s-.156-.976-.468-1.296c-.304-.328-.696-.492-1.176-.492s-.876.164-1.188.492c-.312.32-.468.752-.468 1.296s.156.98.468 1.308c.312.32.708.48 1.188.48zm8.715-5.112c.8 0 1.444.24 1.932.72.496.48.744 1.192.744 2.136V509h-1.872v-3.408c0-.512-.112-.892-.336-1.14-.224-.256-.548-.384-.972-.384-.472 0-.848.148-1.128.444-.28.288-.42.72-.42 1.296V509h-1.872v-6.456h1.788v.756c.248-.272.556-.48.924-.624a3.145 3.145 0 0 1 1.212-.228zm10.891 6.648c-.688 0-1.308-.14-1.86-.42a3.286 3.286 0 0 1-1.284-1.188 3.257 3.257 0 0 1-.456-1.716c0-.64.152-1.212.456-1.716a3.2 3.2 0 0 1 1.284-1.176c.552-.288 1.172-.432 1.86-.432.68 0 1.272.144 1.776.432.512.28.884.684 1.116 1.212l-1.452.78c-.336-.592-.82-.888-1.452-.888-.488 0-.892.16-1.212.48-.32.32-.48.756-.48 1.308s.16.988.48 1.308c.32.32.724.48 1.212.48.64 0 1.124-.296 1.452-.888l1.452.792a2.57 2.57 0 0 1-1.116 1.2c-.504.288-1.096.432-1.776.432zm6.574-6.648c1 0 1.768.24 2.304.72.536.472.804 1.188.804 2.148V509H55.48v-.804c-.352.6-1.008.9-1.968.9-.496 0-.928-.084-1.296-.252a1.93 1.93 0 0 1-.828-.696 1.811 1.811 0 0 1-.288-1.008c0-.6.224-1.072.672-1.416.456-.344 1.156-.516 2.1-.516h1.488c0-.408-.124-.72-.372-.936-.248-.224-.62-.336-1.116-.336-.344 0-.684.056-1.02.168a2.603 2.603 0 0 0-.84.432l-.672-1.308c.352-.248.772-.44 1.26-.576a5.737 5.737 0 0 1 1.524-.204zm-.144 5.388c.32 0 .604-.072.852-.216.248-.152.424-.372.528-.66v-.66h-1.284c-.768 0-1.152.252-1.152.756 0 .24.092.432.276.576.192.136.452.204.78.204zm8.763-5.388c.6 0 1.143.14 1.631.42.497.272.885.66 1.165 1.164.28.496.42 1.076.42 1.74 0 .664-.14 1.248-.42 1.752-.28.496-.668.884-1.165 1.164a3.295 3.295 0 0 1-1.631.408c-.825 0-1.473-.26-1.945-.78v3.012h-1.872v-8.784h1.788v.744c.465-.56 1.14-.84 2.029-.84zm-.325 5.112c.48 0 .873-.16 1.176-.48.313-.328.468-.764.468-1.308s-.155-.976-.468-1.296c-.303-.328-.696-.492-1.175-.492-.48 0-.877.164-1.188.492-.305.32-.456.752-.456 1.296s.151.98.456 1.308c.311.32.707.48 1.188.48zm4.794-5.016h1.872V509h-1.872v-6.456zm.936-.9c-.344 0-.624-.1-.84-.3a.973.973 0 0 1-.324-.744c0-.296.108-.544.324-.744.216-.2.496-.3.84-.3s.624.096.84.288a.923.923 0 0 1 .324.72c0 .312-.108.572-.324.78-.216.2-.496.3-.84.3zm6.837 7.044a2 2 0 0 1-.684.312 3.556 3.556 0 0 1-.84.096c-.768 0-1.364-.196-1.788-.588-.416-.392-.624-.968-.624-1.728v-2.652h-.996v-1.44h.996v-1.572h1.872v1.572h1.608v1.44h-1.608v2.628c0 .272.068.484.204.636.144.144.344.216.6.216.296 0 .548-.08.756-.24l.504 1.32zm3.655-6.24c1 0 1.768.24 2.304.72.536.472.804 1.188.804 2.148V509h-1.752v-.804c-.352.6-1.008.9-1.968.9-.496 0-.928-.084-1.296-.252a1.93 1.93 0 0 1-.828-.696 1.811 1.811 0 0 1-.288-1.008c0-.6.224-1.072.672-1.416.456-.344 1.156-.516 2.1-.516h1.488c0-.408-.124-.72-.372-.936-.248-.224-.62-.336-1.116-.336-.344 0-.684.056-1.02.168a2.603 2.603 0 0 0-.84.432l-.672-1.308c.352-.248.772-.44 1.26-.576a5.737 5.737 0 0 1 1.524-.204zm-.144 5.388c.32 0 .604-.072.852-.216.248-.152.424-.372.528-.66v-.66h-1.284c-.768 0-1.152.252-1.152.756 0 .24.092.432.276.576.192.136.452.204.78.204zm4.946-7.74h1.872V509h-1.872v-8.904zm9.612 2.352c1 0 1.768.24 2.304.72.536.472.804 1.188.804 2.148V509H94.41v-.804c-.352.6-1.008.9-1.968.9-.496 0-.928-.084-1.296-.252a1.93 1.93 0 0 1-.828-.696 1.811 1.811 0 0 1-.288-1.008c0-.6.224-1.072.672-1.416.456-.344 1.156-.516 2.1-.516h1.488c0-.408-.124-.72-.372-.936-.248-.224-.62-.336-1.116-.336-.344 0-.684.056-1.02.168a2.603 2.603 0 0 0-.84.432l-.672-1.308c.352-.248.772-.44 1.26-.576a5.737 5.737 0 0 1 1.524-.204zm-.144 5.388c.32 0 .604-.072.852-.216.248-.152.424-.372.528-.66v-.66h-1.284c-.768 0-1.152.252-1.152.756 0 .24.092.432.276.576.192.136.452.204.78.204zm7.118 1.26c-.536 0-1.06-.064-1.572-.192-.512-.136-.92-.304-1.224-.504l.624-1.344c.288.184.636.336 1.044.456a4.52 4.52 0 0 0 1.2.168c.792 0 1.188-.196 1.188-.588 0-.184-.108-.316-.324-.396-.216-.08-.548-.148-.996-.204a9.609 9.609 0 0 1-1.308-.276 2.071 2.071 0 0 1-.9-.552c-.248-.264-.372-.64-.372-1.128 0-.408.116-.768.348-1.08.24-.32.584-.568 1.032-.744.456-.176.992-.264 1.608-.264.456 0 .908.052 1.356.156.456.096.832.232 1.128.408l-.624 1.332a3.725 3.725 0 0 0-1.86-.48c-.4 0-.7.056-.9.168-.2.112-.3.256-.3.432 0 .2.108.34.324.42.216.08.56.156 1.032.228.528.088.96.184 1.296.288.336.096.628.276.876.54s.372.632.372 1.104c0 .4-.12.756-.36 1.068-.24.312-.592.556-1.056.732-.456.168-1 .252-1.632.252zm10.527-3.3c0 .024-.012.192-.036.504h-4.884c.088.4.296.716.624.948.328.232.736.348 1.224.348.336 0 .632-.048.888-.144a2.23 2.23 0 0 0 .732-.48l.996 1.08c-.608.696-1.496 1.044-2.664 1.044-.728 0-1.372-.14-1.932-.42a3.163 3.163 0 0 1-1.296-1.188 3.257 3.257 0 0 1-.456-1.716c0-.632.148-1.2.444-1.704a3.15 3.15 0 0 1 1.236-1.188 3.623 3.623 0 0 1 1.764-.432 3.6 3.6 0 0 1 1.716.408c.512.272.912.664 1.2 1.176.296.504.444 1.092.444 1.764zm-3.348-1.932c-.424 0-.78.12-1.068.36-.288.24-.464.568-.528.984h3.18c-.064-.408-.24-.732-.528-.972-.288-.248-.64-.372-1.056-.372zm11.255-1.32v5.376c0 1.184-.308 2.064-.924 2.64-.616.576-1.516.864-2.7.864a6.753 6.753 0 0 1-1.776-.228c-.56-.152-1.024-.372-1.392-.66l.744-1.344c.272.224.616.4 1.032.528.416.136.832.204 1.248.204.648 0 1.124-.148 1.428-.444.312-.288.468-.728.468-1.32v-.276c-.488.536-1.168.804-2.04.804a3.505 3.505 0 0 1-1.632-.384 3.027 3.027 0 0 1-1.164-1.104c-.288-.472-.432-1.016-.432-1.632 0-.616.144-1.16.432-1.632a2.94 2.94 0 0 1 1.164-1.092 3.419 3.419 0 0 1 1.632-.396c.936 0 1.648.308 2.136.924v-.828h1.776zm-3.54 4.608c.496 0 .9-.144 1.212-.432.32-.296.48-.68.48-1.152 0-.472-.16-.852-.48-1.14-.312-.296-.716-.444-1.212-.444s-.904.148-1.224.444c-.32.288-.48.668-.48 1.14 0 .472.16.856.48 1.152.32.288.728.432 1.224.432zm11.786-4.608V509h-1.776v-.768c-.248.28-.544.496-.888.648a2.86 2.86 0 0 1-1.116.216c-.848 0-1.52-.244-2.016-.732s-.744-1.212-.744-2.172v-3.648h1.872v3.372c0 1.04.436 1.56 1.308 1.56.448 0 .808-.144 1.08-.432.272-.296.408-.732.408-1.308v-3.192h1.872zm3.522.852c.224-.312.524-.548.9-.708.384-.16.824-.24 1.32-.24v1.728a6.756 6.756 0 0 0-.42-.024c-.536 0-.956.152-1.26.456-.304.296-.456.744-.456 1.344V509h-1.872v-6.456h1.788v.852zm5.902-.948c1 0 1.768.24 2.304.72.536.472.804 1.188.804 2.148V509h-1.752v-.804c-.352.6-1.008.9-1.968.9-.496 0-.928-.084-1.296-.252a1.93 1.93 0 0 1-.828-.696 1.811 1.811 0 0 1-.288-1.008c0-.6.224-1.072.672-1.416.456-.344 1.156-.516 2.1-.516h1.488c0-.408-.124-.72-.372-.936-.248-.224-.62-.336-1.116-.336-.344 0-.684.056-1.02.168a2.603 2.603 0 0 0-.84.432l-.672-1.308c.352-.248.772-.44 1.26-.576a5.737 5.737 0 0 1 1.524-.204zm-.144 5.388c.32 0 .604-.072.852-.216.248-.152.424-.372.528-.66v-.66h-1.284c-.768 0-1.152.252-1.152.756 0 .24.092.432.276.576.192.136.452.204.78.204zm11.593-7.74V509h-1.788v-.744c-.464.56-1.136.84-2.016.84-.608 0-1.16-.136-1.656-.408a2.932 2.932 0 0 1-1.152-1.164c-.28-.504-.42-1.088-.42-1.752 0-.664.14-1.248.42-1.752.28-.504.664-.892 1.152-1.164a3.387 3.387 0 0 1 1.656-.408c.824 0 1.468.26 1.932.78v-3.132h1.872zm-3.48 7.464c.472 0 .864-.16 1.176-.48.312-.328.468-.764.468-1.308s-.156-.976-.468-1.296a1.555 1.555 0 0 0-1.176-.492c-.48 0-.876.164-1.188.492-.312.32-.468.752-.468 1.296s.156.98.468 1.308c.312.32.708.48 1.188.48zm8.284 1.536c-.68 0-1.292-.14-1.836-.42a3.22 3.22 0 0 1-1.26-1.188 3.257 3.257 0 0 1-.456-1.716c0-.64.152-1.212.456-1.716a3.135 3.135 0 0 1 1.26-1.176c.544-.288 1.156-.432 1.836-.432.68 0 1.288.144 1.824.432.536.28.956.672 1.26 1.176.304.504.456 1.076.456 1.716 0 .64-.152 1.212-.456 1.716a3.22 3.22 0 0 1-1.26 1.188c-.536.28-1.144.42-1.824.42zm0-1.536c.48 0 .872-.16 1.176-.48.312-.328.468-.764.468-1.308s-.156-.976-.468-1.296c-.304-.328-.696-.492-1.176-.492s-.876.164-1.188.492c-.312.32-.468.752-.468 1.296s.156.98.468 1.308c.312.32.708.48 1.188.48zm12.006-5.112c.6 0 1.144.14 1.632.42.496.272.884.66 1.164 1.164.28.496.42 1.076.42 1.74 0 .664-.14 1.248-.42 1.752-.28.496-.668.884-1.164 1.164a3.295 3.295 0 0 1-1.632.408c-.824 0-1.472-.26-1.944-.78v3.012h-1.872v-8.784h1.788v.744c.464-.56 1.14-.84 2.028-.84zm-.324 5.112c.48 0 .872-.16 1.176-.48.312-.328.468-.764.468-1.308s-.156-.976-.468-1.296c-.304-.328-.696-.492-1.176-.492s-.876.164-1.188.492c-.304.32-.456.752-.456 1.296s.152.98.456 1.308c.312.32.708.48 1.188.48zm7.865 1.536c-.68 0-1.292-.14-1.836-.42a3.22 3.22 0 0 1-1.26-1.188 3.257 3.257 0 0 1-.456-1.716c0-.64.152-1.212.456-1.716a3.135 3.135 0 0 1 1.26-1.176c.544-.288 1.156-.432 1.836-.432.68 0 1.288.144 1.824.432.536.28.956.672 1.26 1.176.304.504.456 1.076.456 1.716 0 .64-.152 1.212-.456 1.716a3.22 3.22 0 0 1-1.26 1.188c-.536.28-1.144.42-1.824.42zm0-1.536c.48 0 .872-.16 1.176-.48.312-.328.468-.764.468-1.308s-.156-.976-.468-1.296c-.304-.328-.696-.492-1.176-.492s-.876.164-1.188.492c-.312.32-.468.752-.468 1.296s.156.98.468 1.308c.312.32.708.48 1.188.48zm6.579-4.164c.224-.312.524-.548.9-.708.384-.16.824-.24 1.32-.24v1.728a6.756 6.756 0 0 0-.42-.024c-.536 0-.956.152-1.26.456-.304.296-.456.744-.456 1.344V509h-1.872v-6.456h1.788v.852zm13.187-.852L188.974 509h-1.932l-2.712-6.456h1.932l1.788 4.392 1.848-4.392h1.8zm3.157-.096c1 0 1.768.24 2.304.72.536.472.804 1.188.804 2.148V509h-1.752v-.804c-.352.6-1.008.9-1.968.9-.496 0-.928-.084-1.296-.252a1.93 1.93 0 0 1-.828-.696 1.811 1.811 0 0 1-.288-1.008c0-.6.224-1.072.672-1.416.456-.344 1.156-.516 2.1-.516h1.488c0-.408-.124-.72-.372-.936-.248-.224-.62-.336-1.116-.336-.344 0-.684.056-1.02.168a2.603 2.603 0 0 0-.84.432l-.672-1.308c.352-.248.772-.44 1.26-.576a5.737 5.737 0 0 1 1.524-.204zm-.144 5.388c.32 0 .604-.072.852-.216.248-.152.424-.372.528-.66v-.66h-1.284c-.768 0-1.152.252-1.152.756 0 .24.092.432.276.576.192.136.452.204.78.204zm4.946-7.74h1.872V509h-1.872v-8.904zm6.681 9c-.68 0-1.292-.14-1.836-.42a3.22 3.22 0 0 1-1.26-1.188 3.257 3.257 0 0 1-.456-1.716c0-.64.152-1.212.456-1.716a3.135 3.135 0 0 1 1.26-1.176c.544-.288 1.156-.432 1.836-.432.68 0 1.288.144 1.824.432.536.28.956.672 1.26 1.176.304.504.456 1.076.456 1.716 0 .64-.152 1.212-.456 1.716a3.22 3.22 0 0 1-1.26 1.188c-.536.28-1.144.42-1.824.42zm0-1.536c.48 0 .872-.16 1.176-.48.312-.328.468-.764.468-1.308s-.156-.976-.468-1.296c-.304-.328-.696-.492-1.176-.492s-.876.164-1.188.492c-.312.32-.468.752-.468 1.296s.156.98.468 1.308c.312.32.708.48 1.188.48zm6.58-4.164c.224-.312.524-.548.9-.708.384-.16.824-.24 1.32-.24v1.728a6.756 6.756 0 0 0-.42-.024c-.536 0-.956.152-1.26.456-.304.296-.456.744-.456 1.344V509h-1.872v-6.456h1.788v.852zm13.354-3.3V509h-1.788v-.744c-.464.56-1.136.84-2.016.84-.608 0-1.16-.136-1.656-.408a2.932 2.932 0 0 1-1.152-1.164c-.28-.504-.42-1.088-.42-1.752 0-.664.14-1.248.42-1.752.28-.504.664-.892 1.152-1.164a3.387 3.387 0 0 1 1.656-.408c.824 0 1.468.26 1.932.78v-3.132h1.872zm-3.48 7.464c.472 0 .864-.16 1.176-.48.312-.328.468-.764.468-1.308s-.156-.976-.468-1.296a1.555 1.555 0 0 0-1.176-.492c-.48 0-.876.164-1.188.492-.312.32-.468.752-.468 1.296s.156.98.468 1.308c.312.32.708.48 1.188.48zm11.537-1.764c0 .024-.012.192-.036.504h-4.884c.088.4.296.716.624.948.328.232.736.348 1.224.348.336 0 .632-.048.888-.144a2.23 2.23 0 0 0 .732-.48l.996 1.08c-.608.696-1.496 1.044-2.664 1.044-.728 0-1.372-.14-1.932-.42a3.163 3.163 0 0 1-1.296-1.188 3.257 3.257 0 0 1-.456-1.716c0-.632.148-1.2.444-1.704a3.15 3.15 0 0 1 1.236-1.188 3.623 3.623 0 0 1 1.764-.432 3.6 3.6 0 0 1 1.716.408c.512.272.912.664 1.2 1.176.296.504.444 1.092.444 1.764zm-3.348-1.932c-.424 0-.78.12-1.068.36-.288.24-.464.568-.528.984h3.18c-.064-.408-.24-.732-.528-.972-.288-.248-.64-.372-1.056-.372zm10.836-3.264v8.4h-1.944v-6.84h-1.68v-1.56h3.624zm4.34 3.156c1.184 0 2.056.236 2.616.708.568.472.852 1.104.852 1.896 0 .512-.128.98-.384 1.404-.256.416-.648.752-1.176 1.008-.52.248-1.164.372-1.932.372a6.838 6.838 0 0 1-1.752-.228c-.568-.16-1.052-.384-1.452-.672l.768-1.488c.32.24.688.428 1.104.564.416.128.844.192 1.284.192.488 0 .872-.096 1.152-.288a.92.92 0 0 0 .42-.804c0-.36-.148-.632-.444-.816-.288-.184-.792-.276-1.512-.276h-2.148l.432-4.728h5.124v1.56h-3.504l-.132 1.596h.684zm7.856 5.388c-.696 0-1.316-.172-1.86-.516-.544-.344-.972-.84-1.284-1.488-.304-.656-.456-1.436-.456-2.34 0-.904.152-1.68.456-2.328.312-.656.74-1.156 1.284-1.5.544-.344 1.164-.516 1.86-.516.696 0 1.316.172 1.86.516.544.344.968.844 1.272 1.5.312.648.468 1.424.468 2.328 0 .904-.156 1.684-.468 2.34-.304.648-.728 1.144-1.272 1.488-.544.344-1.164.516-1.86.516zm0-1.644c.512 0 .912-.22 1.2-.66.296-.44.444-1.12.444-2.04 0-.92-.148-1.6-.444-2.04-.288-.44-.688-.66-1.2-.66-.504 0-.904.22-1.2.66-.288.44-.432 1.12-.432 2.04 0 .92.144 1.6.432 2.04.296.44.696.66 1.2.66zm11.543 1.644c-.696 0-1.316-.172-1.86-.516-.544-.344-.972-.84-1.284-1.488-.304-.656-.456-1.436-.456-2.34 0-.904.152-1.68.456-2.328.312-.656.74-1.156 1.284-1.5.544-.344 1.164-.516 1.86-.516.696 0 1.316.172 1.86.516.544.344.968.844 1.272 1.5.312.648.468 1.424.468 2.328 0 .904-.156 1.684-.468 2.34-.304.648-.728 1.144-1.272 1.488-.544.344-1.164.516-1.86.516zm0-1.644c.512 0 .912-.22 1.2-.66.296-.44.444-1.12.444-2.04 0-.92-.148-1.6-.444-2.04-.288-.44-.688-.66-1.2-.66-.504 0-.904.22-1.2.66-.288.44-.432 1.12-.432 2.04 0 .92.144 1.6.432 2.04.296.44.696.66 1.2.66zm8.145 1.644c-.696 0-1.316-.172-1.86-.516-.544-.344-.972-.84-1.284-1.488-.304-.656-.456-1.436-.456-2.34 0-.904.152-1.68.456-2.328.312-.656.74-1.156 1.284-1.5.544-.344 1.164-.516 1.86-.516.696 0 1.316.172 1.86.516.544.344.968.844 1.272 1.5.312.648.468 1.424.468 2.328 0 .904-.156 1.684-.468 2.34-.304.648-.728 1.144-1.272 1.488-.544.344-1.164.516-1.86.516zm0-1.644c.512 0 .912-.22 1.2-.66.296-.44.444-1.12.444-2.04 0-.92-.148-1.6-.444-2.04-.288-.44-.688-.66-1.2-.66-.504 0-.904.22-1.2.66-.288.44-.432 1.12-.432 2.04 0 .92.144 1.6.432 2.04.296.44.696.66 1.2.66zm8.144 1.644c-.696 0-1.316-.172-1.86-.516-.544-.344-.972-.84-1.284-1.488-.304-.656-.456-1.436-.456-2.34 0-.904.152-1.68.456-2.328.312-.656.74-1.156 1.284-1.5.544-.344 1.164-.516 1.86-.516.696 0 1.316.172 1.86.516.544.344.968.844 1.272 1.5.312.648.468 1.424.468 2.328 0 .904-.156 1.684-.468 2.34-.304.648-.728 1.144-1.272 1.488-.544.344-1.164.516-1.86.516zm0-1.644c.512 0 .912-.22 1.2-.66.296-.44.444-1.12.444-2.04 0-.92-.148-1.6-.444-2.04-.288-.44-.688-.66-1.2-.66-.504 0-.904.22-1.2.66-.288.44-.432 1.12-.432 2.04 0 .92.144 1.6.432 2.04.296.44.696.66 1.2.66zm14.663-1.704c0 .024-.012.192-.036.504h-4.884c.088.4.296.716.624.948.328.232.736.348 1.224.348.336 0 .632-.048.888-.144a2.23 2.23 0 0 0 .732-.48l.996 1.08c-.608.696-1.496 1.044-2.664 1.044-.728 0-1.372-.14-1.932-.42a3.163 3.163 0 0 1-1.296-1.188 3.257 3.257 0 0 1-.456-1.716c0-.632.148-1.2.444-1.704a3.15 3.15 0 0 1 1.236-1.188 3.623 3.623 0 0 1 1.764-.432 3.6 3.6 0 0 1 1.716.408c.512.272.912.664 1.2 1.176.296.504.444 1.092.444 1.764zm-3.348-1.932c-.424 0-.78.12-1.068.36-.288.24-.464.568-.528.984h3.18c-.064-.408-.24-.732-.528-.972-.288-.248-.64-.372-1.056-.372zm11.099-1.32V509h-1.776v-.768c-.248.28-.544.496-.888.648a2.86 2.86 0 0 1-1.116.216c-.848 0-1.52-.244-2.016-.732s-.744-1.212-.744-2.172v-3.648h1.872v3.372c0 1.04.436 1.56 1.308 1.56.448 0 .808-.144 1.08-.432.272-.296.408-.732.408-1.308v-3.192h1.872zm3.522.852c.224-.312.524-.548.9-.708.384-.16.824-.24 1.32-.24v1.728a6.756 6.756 0 0 0-.42-.024c-.536 0-.956.152-1.26.456-.304.296-.456.744-.456 1.344V509h-1.872v-6.456h1.788v.852zm6.346 5.7c-.68 0-1.292-.14-1.836-.42a3.22 3.22 0 0 1-1.26-1.188 3.257 3.257 0 0 1-.456-1.716c0-.64.152-1.212.456-1.716a3.135 3.135 0 0 1 1.26-1.176c.544-.288 1.156-.432 1.836-.432.68 0 1.288.144 1.824.432.536.28.956.672 1.26 1.176.304.504.456 1.076.456 1.716 0 .64-.152 1.212-.456 1.716a3.22 3.22 0 0 1-1.26 1.188c-.536.28-1.144.42-1.824.42zm0-1.536c.48 0 .872-.16 1.176-.48.312-.328.468-.764.468-1.308s-.156-.976-.468-1.296c-.304-.328-.696-.492-1.176-.492s-.876.164-1.188.492c-.312.32-.468.752-.468 1.296s.156.98.468 1.308c.312.32.708.48 1.188.48zm6.964 1.536c-.536 0-1.06-.064-1.572-.192-.512-.136-.92-.304-1.224-.504l.624-1.344c.288.184.636.336 1.044.456.408.112.808.168 1.2.168.792 0 1.188-.196 1.188-.588 0-.184-.108-.316-.324-.396-.216-.08-.548-.148-.996-.204a9.609 9.609 0 0 1-1.308-.276 2.071 2.071 0 0 1-.9-.552c-.248-.264-.372-.64-.372-1.128 0-.408.116-.768.348-1.08.24-.32.584-.568 1.032-.744.456-.176.992-.264 1.608-.264.456 0 .908.052 1.356.156.456.096.832.232 1.128.408l-.624 1.332a3.725 3.725 0 0 0-1.86-.48c-.4 0-.7.056-.9.168-.2.112-.3.256-.3.432 0 .2.108.34.324.42.216.08.56.156 1.032.228.528.088.96.184 1.296.288.336.096.628.276.876.54s.372.632.372 1.104c0 .4-.12.756-.36 1.068-.24.312-.592.556-1.056.732-.456.168-1 .252-1.632.252zm4.911 0c-.328 0-.604-.112-.828-.336a1.14 1.14 0 0 1-.336-.84c0-.344.112-.62.336-.828.224-.216.5-.324.828-.324.328 0 .604.108.828.324.224.208.336.484.336.828 0 .336-.112.616-.336.84-.224.224-.5.336-.828.336zM24.104 548l-1.92-2.7c-.216.024-.44.036-.672.036h-2.256V548h-.888v-8.4h3.144c1.072 0 1.912.256 2.52.768.608.512.912 1.216.912 2.112 0 .656-.168 1.212-.504 1.668-.328.448-.8.772-1.416.972l2.052 2.88h-.972zm-2.616-3.42c.832 0 1.468-.184 1.908-.552.44-.368.66-.884.66-1.548 0-.68-.22-1.2-.66-1.56-.44-.368-1.076-.552-1.908-.552h-2.232v4.212h2.232zm10.868.528h-5.28c.048.656.3 1.188.756 1.596.456.4 1.032.6 1.728.6.392 0 .752-.068 1.08-.204.328-.144.612-.352.852-.624l.48.552c-.28.336-.632.592-1.056.768a3.507 3.507 0 0 1-1.38.264c-.648 0-1.224-.136-1.728-.408a3.038 3.038 0 0 1-1.164-1.152 3.267 3.267 0 0 1-.42-1.656c0-.616.132-1.168.396-1.656.272-.488.64-.868 1.104-1.14.472-.272 1-.408 1.584-.408a3.05 3.05 0 0 1 1.572.408c.464.272.828.652 1.092 1.14.264.48.396 1.032.396 1.656l-.012.264zm-3.048-2.736c-.608 0-1.12.196-1.536.588-.408.384-.64.888-.696 1.512h4.476c-.056-.624-.292-1.128-.708-1.512-.408-.392-.92-.588-1.536-.588zm7.41 5.688a3.436 3.436 0 0 1-1.68-.408 2.976 2.976 0 0 1-1.152-1.14 3.333 3.333 0 0 1-.42-1.668c0-.616.14-1.168.42-1.656.28-.488.664-.868 1.152-1.14a3.436 3.436 0 0 1 1.68-.408c.544 0 1.028.108 1.452.324.432.208.772.516 1.02.924l-.636.432a1.945 1.945 0 0 0-.792-.696c-.32-.16-.668-.24-1.044-.24-.456 0-.868.104-1.236.312-.36.2-.644.488-.852.864-.2.376-.3.804-.3 1.284 0 .488.1.92.3 1.296.208.368.492.656.852.864.368.2.78.3 1.236.3.376 0 .724-.076 1.044-.228.32-.152.584-.384.792-.696l.636.432c-.248.408-.588.72-1.02.936a3.304 3.304 0 0 1-1.452.312zm9.834-6.372V548h-.816v-1.152a2.379 2.379 0 0 1-.924.9c-.392.208-.84.312-1.344.312-.824 0-1.476-.228-1.956-.684-.472-.464-.708-1.14-.708-2.028v-3.66h.852v3.576c0 .664.164 1.168.492 1.512.328.344.796.516 1.404.516.664 0 1.188-.2 1.572-.6.384-.408.576-.972.576-1.692v-3.312h.852zm5.638-.048c.592 0 1.128.136 1.608.408.48.264.856.64 1.128 1.128.272.488.408 1.044.408 1.668 0 .632-.136 1.192-.408 1.68a2.916 2.916 0 0 1-1.128 1.14c-.472.264-1.008.396-1.608.396-.512 0-.976-.104-1.392-.312a2.687 2.687 0 0 1-1.008-.936v3.516h-.852v-8.64h.816v1.248a2.637 2.637 0 0 1 1.008-.96 3.01 3.01 0 0 1 1.428-.336zm-.06 5.664c.44 0 .84-.1 1.2-.3.36-.208.64-.5.84-.876.208-.376.312-.804.312-1.284s-.104-.904-.312-1.272c-.2-.376-.48-.668-.84-.876a2.355 2.355 0 0 0-1.2-.312c-.448 0-.852.104-1.212.312a2.27 2.27 0 0 0-.84.876c-.2.368-.3.792-.3 1.272s.1.908.3 1.284c.208.376.488.668.84.876.36.2.764.3 1.212.3zm10.437-2.196h-5.28c.048.656.3 1.188.756 1.596.456.4 1.032.6 1.728.6.392 0 .752-.068 1.08-.204.328-.144.612-.352.852-.624l.48.552c-.28.336-.632.592-1.056.768a3.507 3.507 0 0 1-1.38.264c-.648 0-1.224-.136-1.728-.408a3.038 3.038 0 0 1-1.164-1.152 3.267 3.267 0 0 1-.42-1.656c0-.616.132-1.168.396-1.656.272-.488.64-.868 1.104-1.14.472-.272 1-.408 1.584-.408a3.05 3.05 0 0 1 1.572.408c.464.272.828.652 1.092 1.14.264.48.396 1.032.396 1.656l-.012.264zm-3.048-2.736c-.608 0-1.12.196-1.536.588-.408.384-.64.888-.696 1.512h4.476c-.056-.624-.292-1.128-.708-1.512-.408-.392-.92-.588-1.536-.588zm5.61.552c.2-.424.496-.744.888-.96.4-.216.892-.324 1.476-.324v.828l-.204-.012c-.664 0-1.184.204-1.56.612-.376.408-.564.98-.564 1.716V548h-.852v-6.312h.816v1.236zm6.208-1.284c.824 0 1.456.208 1.896.624.44.408.66 1.016.66 1.824V548h-.816v-.984a1.947 1.947 0 0 1-.852.768c-.368.184-.808.276-1.32.276-.704 0-1.264-.168-1.68-.504-.416-.336-.624-.78-.624-1.332 0-.536.192-.968.576-1.296.392-.328 1.012-.492 1.86-.492h2.004v-.384c0-.544-.152-.956-.456-1.236-.304-.288-.748-.432-1.332-.432-.4 0-.784.068-1.152.204a2.822 2.822 0 0 0-.948.54l-.384-.636c.32-.272.704-.48 1.152-.624.448-.152.92-.228 1.416-.228zm-.3 5.748c.48 0 .892-.108 1.236-.324.344-.224.6-.544.768-.96v-1.032h-1.98c-1.08 0-1.62.376-1.62 1.128 0 .368.14.66.42.876.28.208.672.312 1.176.312zm10.93-8.292V548h-.816v-1.248a2.587 2.587 0 0 1-1.02.972 2.939 2.939 0 0 1-1.415.336 3.204 3.204 0 0 1-1.608-.408 2.916 2.916 0 0 1-1.129-1.14c-.272-.488-.407-1.044-.407-1.668 0-.624.135-1.18.407-1.668a2.834 2.834 0 0 1 1.129-1.128 3.204 3.204 0 0 1 1.608-.408c.512 0 .972.108 1.38.324a2.57 2.57 0 0 1 1.02.924v-3.792h.852zm-3.18 8.208c.44 0 .837-.1 1.188-.3.36-.208.64-.5.84-.876.209-.376.313-.804.313-1.284s-.105-.908-.313-1.284c-.2-.376-.48-.664-.84-.864a2.29 2.29 0 0 0-1.188-.312c-.448 0-.852.104-1.212.312-.352.2-.632.488-.84.864-.2.376-.3.804-.3 1.284s.1.908.3 1.284c.209.376.489.668.84.876.36.2.764.3 1.212.3zm8.133.756a3.319 3.319 0 0 1-1.644-.408 3.063 3.063 0 0 1-1.152-1.152 3.267 3.267 0 0 1-.42-1.656c0-.616.14-1.168.42-1.656.28-.488.664-.868 1.152-1.14a3.319 3.319 0 0 1 1.644-.408c.608 0 1.156.136 1.644.408.488.272.868.652 1.14 1.14.28.488.42 1.04.42 1.656 0 .616-.14 1.168-.42 1.656a2.976 2.976 0 0 1-1.14 1.152 3.319 3.319 0 0 1-1.644.408zm0-.756c.448 0 .848-.1 1.2-.3.36-.208.64-.5.84-.876.2-.376.3-.804.3-1.284s-.1-.908-.3-1.284c-.2-.376-.48-.664-.84-.864a2.314 2.314 0 0 0-1.2-.312c-.448 0-.852.104-1.212.312-.352.2-.632.488-.84.864-.2.376-.3.804-.3 1.284s.1.908.3 1.284c.208.376.488.668.84.876.36.2.764.3 1.212.3zm13.844-8.208V548h-.816v-1.248a2.587 2.587 0 0 1-1.02.972 2.939 2.939 0 0 1-1.416.336 3.204 3.204 0 0 1-1.608-.408 2.916 2.916 0 0 1-1.128-1.14c-.272-.488-.408-1.044-.408-1.668 0-.624.136-1.18.408-1.668a2.834 2.834 0 0 1 1.128-1.128 3.204 3.204 0 0 1 1.608-.408c.512 0 .972.108 1.38.324a2.57 2.57 0 0 1 1.02.924v-3.792h.852zm-3.18 8.208c.44 0 .836-.1 1.188-.3.36-.208.64-.5.84-.876.208-.376.312-.804.312-1.284s-.104-.908-.312-1.284c-.2-.376-.48-.664-.84-.864a2.29 2.29 0 0 0-1.188-.312c-.448 0-.852.104-1.212.312-.352.2-.632.488-.84.864-.2.376-.3.804-.3 1.284s.1.908.3 1.284c.208.376.488.668.84.876.36.2.764.3 1.212.3zm11.049-2.196h-5.28c.048.656.3 1.188.756 1.596.456.4 1.032.6 1.728.6.392 0 .752-.068 1.08-.204.328-.144.612-.352.852-.624l.48.552c-.28.336-.632.592-1.056.768a3.507 3.507 0 0 1-1.38.264c-.648 0-1.224-.136-1.728-.408a3.038 3.038 0 0 1-1.164-1.152 3.267 3.267 0 0 1-.42-1.656c0-.616.132-1.168.396-1.656.272-.488.64-.868 1.104-1.14.472-.272 1-.408 1.584-.408a3.05 3.05 0 0 1 1.572.408c.464.272.828.652 1.092 1.14.264.48.396 1.032.396 1.656l-.012.264zm-3.048-2.736c-.608 0-1.12.196-1.536.588-.408.384-.64.888-.696 1.512h4.476c-.056-.624-.292-1.128-.708-1.512-.408-.392-.92-.588-1.536-.588zM119.436 548l-1.92-2.7c-.216.024-.44.036-.672.036h-2.256V548h-.888v-8.4h3.144c1.072 0 1.912.256 2.52.768.608.512.912 1.216.912 2.112 0 .656-.168 1.212-.504 1.668-.328.448-.8.772-1.416.972l2.052 2.88h-.972zm-2.616-3.42c.832 0 1.468-.184 1.908-.552.44-.368.66-.884.66-1.548 0-.68-.22-1.2-.66-1.56-.44-.368-1.076-.552-1.908-.552h-2.232v4.212h2.232zm7.58-2.94c.824 0 1.456.208 1.896.624.44.408.66 1.016.66 1.824V548h-.816v-.984a1.947 1.947 0 0 1-.852.768c-.368.184-.808.276-1.32.276-.704 0-1.264-.168-1.68-.504-.416-.336-.624-.78-.624-1.332 0-.536.192-.968.576-1.296.392-.328 1.012-.492 1.86-.492h2.004v-.384c0-.544-.152-.956-.456-1.236-.304-.288-.748-.432-1.332-.432-.4 0-.784.068-1.152.204a2.822 2.822 0 0 0-.948.54l-.384-.636c.32-.272.704-.48 1.152-.624.448-.152.92-.228 1.416-.228zm-.3 5.748c.48 0 .892-.108 1.236-.324.344-.224.6-.544.768-.96v-1.032h-1.98c-1.08 0-1.62.376-1.62 1.128 0 .368.14.66.42.876.28.208.672.312 1.176.312zm6.862.672a5.03 5.03 0 0 1-1.476-.216c-.464-.152-.828-.34-1.092-.564l.384-.672c.264.208.596.38.996.516.4.128.816.192 1.248.192.576 0 1-.088 1.272-.264a.87.87 0 0 0 .42-.768c0-.232-.076-.412-.228-.54a1.41 1.41 0 0 0-.576-.3 7.263 7.263 0 0 0-.924-.204 11.681 11.681 0 0 1-1.236-.288 1.908 1.908 0 0 1-.804-.516c-.216-.24-.324-.572-.324-.996 0-.528.22-.96.66-1.296.44-.336 1.052-.504 1.836-.504.408 0 .816.056 1.224.168.408.104.744.244 1.008.42l-.372.684c-.52-.36-1.14-.54-1.86-.54-.544 0-.956.096-1.236.288-.272.192-.408.444-.408.756 0 .24.076.432.228.576.16.144.356.252.588.324.232.064.552.132.96.204.504.096.908.192 1.212.288.304.096.564.26.78.492.216.232.324.552.324.96 0 .552-.232.992-.696 1.32-.456.32-1.092.48-1.908.48zm7.503-.444c-.16.144-.36.256-.6.336a2.456 2.456 0 0 1-.732.108c-.592 0-1.048-.16-1.368-.48-.32-.32-.48-.772-.48-1.356v-3.816h-1.128v-.72h1.128v-1.38h.852v1.38h1.92v.72h-1.92v3.768c0 .376.092.664.276.864.192.192.464.288.816.288.176 0 .344-.028.504-.084.168-.056.312-.136.432-.24l.3.612zm2.367-4.692c.2-.424.496-.744.888-.96.4-.216.892-.324 1.476-.324v.828l-.204-.012c-.664 0-1.184.204-1.56.612-.376.408-.564.98-.564 1.716V548h-.852v-6.312h.816v1.236zm9.497 2.184h-5.28c.048.656.3 1.188.756 1.596.456.4 1.032.6 1.728.6.392 0 .752-.068 1.08-.204.328-.144.612-.352.852-.624l.48.552c-.28.336-.632.592-1.056.768a3.507 3.507 0 0 1-1.38.264c-.648 0-1.224-.136-1.728-.408a3.038 3.038 0 0 1-1.164-1.152 3.267 3.267 0 0 1-.42-1.656c0-.616.132-1.168.396-1.656.272-.488.64-.868 1.104-1.14.472-.272 1-.408 1.584-.408a3.05 3.05 0 0 1 1.572.408c.464.272.828.652 1.092 1.14.264.48.396 1.032.396 1.656l-.012.264zm-3.048-2.736c-.608 0-1.12.196-1.536.588-.408.384-.64.888-.696 1.512h4.476c-.056-.624-.292-1.128-.708-1.512-.408-.392-.92-.588-1.536-.588zm7.002-.732c.824 0 1.456.208 1.896.624.44.408.66 1.016.66 1.824V548h-.816v-.984a1.947 1.947 0 0 1-.852.768c-.368.184-.808.276-1.32.276-.704 0-1.264-.168-1.68-.504-.416-.336-.624-.78-.624-1.332 0-.536.192-.968.576-1.296.392-.328 1.012-.492 1.86-.492h2.004v-.384c0-.544-.152-.956-.456-1.236-.304-.288-.748-.432-1.332-.432-.4 0-.784.068-1.152.204a2.822 2.822 0 0 0-.948.54l-.384-.636c.32-.272.704-.48 1.152-.624.448-.152.92-.228 1.416-.228zm-.3 5.748c.48 0 .892-.108 1.236-.324.344-.224.6-.544.768-.96v-1.032h-1.98c-1.08 0-1.62.376-1.62 1.128 0 .368.14.66.42.876.28.208.672.312 1.176.312zm8.494.228c-.16.144-.36.256-.6.336a2.456 2.456 0 0 1-.732.108c-.592 0-1.048-.16-1.368-.48-.32-.32-.48-.772-.48-1.356v-3.816h-1.128v-.72h1.128v-1.38h.852v1.38h1.92v.72h-1.92v3.768c0 .376.092.664.276.864.192.192.464.288.816.288.176 0 .344-.028.504-.084.168-.056.312-.136.432-.24l.3.612zm4.131.444a3.319 3.319 0 0 1-1.644-.408 3.063 3.063 0 0 1-1.152-1.152 3.267 3.267 0 0 1-.42-1.656c0-.616.14-1.168.42-1.656.28-.488.664-.868 1.152-1.14a3.319 3.319 0 0 1 1.644-.408c.608 0 1.156.136 1.644.408.488.272.868.652 1.14 1.14.28.488.42 1.04.42 1.656 0 .616-.14 1.168-.42 1.656a2.976 2.976 0 0 1-1.14 1.152 3.319 3.319 0 0 1-1.644.408zm0-.756c.448 0 .848-.1 1.2-.3.36-.208.64-.5.84-.876.2-.376.3-.804.3-1.284s-.1-.908-.3-1.284c-.2-.376-.48-.664-.84-.864a2.314 2.314 0 0 0-1.2-.312c-.448 0-.852.104-1.212.312-.352.2-.632.488-.84.864-.2.376-.3.804-.3 1.284s.1.908.3 1.284c.208.376.488.668.84.876.36.2.764.3 1.212.3zm5.759-4.38c.2-.424.496-.744.888-.96.4-.216.892-.324 1.476-.324v.828l-.204-.012c-.664 0-1.184.204-1.56.612-.376.408-.564.98-.564 1.716V548h-.852v-6.312h.816v1.236zm9.349-1.284c.824 0 1.456.208 1.896.624.44.408.66 1.016.66 1.824V548h-.816v-.984a1.947 1.947 0 0 1-.852.768c-.368.184-.808.276-1.32.276-.704 0-1.264-.168-1.68-.504-.416-.336-.624-.78-.624-1.332 0-.536.192-.968.576-1.296.392-.328 1.012-.492 1.86-.492h2.004v-.384c0-.544-.152-.956-.456-1.236-.304-.288-.748-.432-1.332-.432-.4 0-.784.068-1.152.204a2.822 2.822 0 0 0-.948.54l-.384-.636c.32-.272.704-.48 1.152-.624.448-.152.92-.228 1.416-.228zm-.3 5.748c.48 0 .892-.108 1.236-.324.344-.224.6-.544.768-.96v-1.032h-1.98c-1.08 0-1.62.376-1.62 1.128 0 .368.14.66.42.876.28.208.672.312 1.176.312zm5.17-8.292h.852V548h-.852v-8.904zm11.536 8.136V548h-5.892v-.612l3.492-3.42c.44-.432.736-.804.888-1.116.16-.32.24-.64.24-.96 0-.496-.172-.88-.516-1.152-.336-.28-.82-.42-1.452-.42-.984 0-1.748.312-2.292.936l-.612-.528a3.23 3.23 0 0 1 1.248-.888c.512-.208 1.088-.312 1.728-.312.856 0 1.532.204 2.028.612.504.4.756.952.756 1.656 0 .432-.096.848-.288 1.248-.192.4-.556.86-1.092 1.38l-2.856 2.808h4.62zm4.432.84a3.048 3.048 0 0 1-1.74-.516c-.504-.344-.9-.836-1.188-1.476-.28-.648-.42-1.408-.42-2.28 0-.872.14-1.628.42-2.268.288-.648.684-1.144 1.188-1.488a3.048 3.048 0 0 1 1.74-.516c.648 0 1.224.172 1.728.516.512.344.912.84 1.2 1.488.288.64.432 1.396.432 2.268 0 .872-.144 1.632-.432 2.28-.288.64-.688 1.132-1.2 1.476a2.992 2.992 0 0 1-1.728.516zm0-.792c.488 0 .916-.136 1.284-.408.376-.272.668-.668.876-1.188.208-.52.312-1.148.312-1.884s-.104-1.364-.312-1.884c-.208-.52-.5-.916-.876-1.188a2.102 2.102 0 0 0-1.284-.408c-.488 0-.92.136-1.296.408-.368.272-.656.668-.864 1.188-.208.52-.312 1.148-.312 1.884s.104 1.364.312 1.884c.208.52.496.916.864 1.188.376.272.808.408 1.296.408zm7.633-9.384h.78l-3.96 11.304h-.78l3.96-11.304zm4.332 10.176a3.048 3.048 0 0 1-1.74-.516c-.504-.344-.9-.836-1.188-1.476-.28-.648-.42-1.408-.42-2.28 0-.872.14-1.628.42-2.268.288-.648.684-1.144 1.188-1.488a3.048 3.048 0 0 1 1.74-.516c.648 0 1.224.172 1.728.516.512.344.912.84 1.2 1.488.288.64.432 1.396.432 2.268 0 .872-.144 1.632-.432 2.28-.288.64-.688 1.132-1.2 1.476a2.992 2.992 0 0 1-1.728.516zm0-.792c.488 0 .916-.136 1.284-.408.376-.272.668-.668.876-1.188.208-.52.312-1.148.312-1.884s-.104-1.364-.312-1.884c-.208-.52-.5-.916-.876-1.188a2.102 2.102 0 0 0-1.284-.408c-.488 0-.92.136-1.296.408-.368.272-.656.668-.864 1.188-.208.52-.312 1.148-.312 1.884s.104 1.364.312 1.884c.208.52.496.916.864 1.188.376.272.808.408 1.296.408zm9.409-3.684c.528.176.932.44 1.212.792.288.352.432.776.432 1.272 0 .488-.132.916-.396 1.284-.264.36-.644.64-1.14.84-.488.192-1.064.288-1.728.288-1.008 0-1.8-.216-2.376-.648-.576-.432-.864-1.02-.864-1.764 0-.504.136-.928.408-1.272.28-.352.684-.616 1.212-.792-.432-.168-.76-.408-.984-.72a1.917 1.917 0 0 1-.336-1.128c0-.68.264-1.22.792-1.62.536-.4 1.252-.6 2.148-.6.592 0 1.108.092 1.548.276.448.176.796.432 1.044.768s.372.728.372 1.176c0 .432-.116.808-.348 1.128-.232.312-.564.552-.996.72zm-3.696-1.824c0 .464.184.832.552 1.104.368.272.876.408 1.524.408s1.156-.136 1.524-.408c.376-.272.564-.636.564-1.092 0-.472-.192-.844-.576-1.116-.376-.272-.88-.408-1.512-.408-.64 0-1.148.136-1.524.408-.368.272-.552.64-.552 1.104zm2.076 5.568c.744 0 1.324-.152 1.74-.456.424-.304.636-.716.636-1.236s-.212-.928-.636-1.224c-.416-.304-.996-.456-1.74-.456-.736 0-1.316.152-1.74.456-.416.296-.624.704-.624 1.224 0 .528.208.944.624 1.248.416.296.996.444 1.74.444zm7.497-9.444h.78l-3.96 11.304h-.78l3.96-11.304zm6.719 9.336V548h-5.892v-.612l3.492-3.42c.44-.432.736-.804.888-1.116.16-.32.24-.64.24-.96 0-.496-.172-.88-.516-1.152-.336-.28-.82-.42-1.452-.42-.984 0-1.748.312-2.292.936l-.612-.528a3.23 3.23 0 0 1 1.248-.888c.512-.208 1.088-.312 1.728-.312.856 0 1.532.204 2.028.612.504.4.756.952.756 1.656 0 .432-.096.848-.288 1.248-.192.4-.556.86-1.092 1.38l-2.856 2.808h4.62zm4.432.84a3.048 3.048 0 0 1-1.74-.516c-.504-.344-.9-.836-1.188-1.476-.28-.648-.42-1.408-.42-2.28 0-.872.14-1.628.42-2.268.288-.648.684-1.144 1.188-1.488a3.048 3.048 0 0 1 1.74-.516c.648 0 1.224.172 1.728.516.512.344.912.84 1.2 1.488.288.64.432 1.396.432 2.268 0 .872-.144 1.632-.432 2.28-.288.64-.688 1.132-1.2 1.476a2.992 2.992 0 0 1-1.728.516zm0-.792c.488 0 .916-.136 1.284-.408.376-.272.668-.668.876-1.188.208-.52.312-1.148.312-1.884s-.104-1.364-.312-1.884c-.208-.52-.5-.916-.876-1.188a2.102 2.102 0 0 0-1.284-.408c-.488 0-.92.136-1.296.408-.368.272-.656.668-.864 1.188-.208.52-.312 1.148-.312 1.884s.104 1.364.312 1.884c.208.52.496.916.864 1.188.376.272.808.408 1.296.408zm10.334-.048V548h-5.892v-.612l3.492-3.42c.44-.432.736-.804.888-1.116.16-.32.24-.64.24-.96 0-.496-.172-.88-.516-1.152-.336-.28-.82-.42-1.452-.42-.984 0-1.748.312-2.292.936l-.612-.528a3.23 3.23 0 0 1 1.248-.888c.512-.208 1.088-.312 1.728-.312.856 0 1.532.204 2.028.612.504.4.756.952.756 1.656 0 .432-.096.848-.288 1.248-.192.4-.556.86-1.092 1.38l-2.856 2.808h4.62zm3.412-7.632v8.4h-.864v-7.632h-1.98v-.768h2.844zM154.568 409.176c.64.203 1.141.544 1.504 1.024.362.469.544 1.051.544 1.744 0 .981-.384 1.739-1.152 2.272-.758.523-1.867.784-3.328.784h-5.792v-11.2h5.472c1.365 0 2.41.261 3.136.784.736.523 1.104 1.232 1.104 2.128 0 .544-.134 1.029-.4 1.456a2.687 2.687 0 0 1-1.088 1.008zm-5.648-3.424v2.64h2.576c.64 0 1.125-.112 1.456-.336.33-.224.496-.555.496-.992 0-.437-.166-.763-.496-.976-.331-.224-.816-.336-1.456-.336h-2.576zm3.024 7.296c.682 0 1.194-.112 1.536-.336.352-.224.528-.571.528-1.04 0-.928-.688-1.392-2.064-1.392h-3.024v2.768h3.024zm14.858-3.872c.64.203 1.141.544 1.504 1.024.363.469.544 1.051.544 1.744 0 .981-.384 1.739-1.152 2.272-.757.523-1.867.784-3.328.784h-5.792v-11.2h5.472c1.365 0 2.411.261 3.136.784.736.523 1.104 1.232 1.104 2.128 0 .544-.133 1.029-.4 1.456a2.687 2.687 0 0 1-1.088 1.008zm-5.648-3.424v2.64h2.576c.64 0 1.125-.112 1.456-.336.331-.224.496-.555.496-.992 0-.437-.165-.763-.496-.976-.331-.224-.816-.336-1.456-.336h-2.576zm3.024 7.296c.683 0 1.195-.112 1.536-.336.352-.224.528-.571.528-1.04 0-.928-.688-1.392-2.064-1.392h-3.024v2.768h3.024zm17.324-9.248-4.848 11.2h-2.56l-4.832-11.2h2.8l3.408 8 3.456-8h2.576zm7.936 8.8h-5.2l-.992 2.4h-2.656l4.992-11.2h2.56l5.008 11.2h-2.72l-.992-2.4zm-.816-1.968-1.776-4.288-1.776 4.288h3.552zM256.372 409.176c.64.203 1.142.544 1.504 1.024.363.469.544 1.051.544 1.744 0 .981-.384 1.739-1.152 2.272-.757.523-1.866.784-3.328.784h-5.792v-11.2h5.472c1.366 0 2.411.261 3.136.784.736.523 1.104 1.232 1.104 2.128 0 .544-.133 1.029-.4 1.456a2.68 2.68 0 0 1-1.088 1.008zm-5.648-3.424v2.64h2.576c.64 0 1.126-.112 1.456-.336.331-.224.496-.555.496-.992 0-.437-.165-.763-.496-.976-.33-.224-.816-.336-1.456-.336h-2.576zm3.024 7.296c.683 0 1.195-.112 1.536-.336.352-.224.528-.571.528-1.04 0-.928-.688-1.392-2.064-1.392h-3.024v2.768h3.024zm9.931-6.784c1.333 0 2.357.32 3.072.96.714.629 1.072 1.584 1.072 2.864V415h-2.336v-1.072c-.47.8-1.344 1.2-2.624 1.2-.662 0-1.238-.112-1.728-.336-.48-.224-.848-.533-1.104-.928a2.417 2.417 0 0 1-.384-1.344c0-.8.298-1.429.896-1.888.608-.459 1.541-.688 2.8-.688h1.984c0-.544-.166-.96-.496-1.248-.331-.299-.827-.448-1.488-.448-.459 0-.912.075-1.36.224a3.473 3.473 0 0 0-1.12.576l-.896-1.744c.469-.331 1.029-.587 1.68-.768a7.658 7.658 0 0 1 2.032-.272zm-.192 7.184c.426 0 .805-.096 1.136-.288.33-.203.565-.496.704-.88v-.88h-1.712c-1.024 0-1.536.336-1.536 1.008 0 .32.122.576.368.768.256.181.602.272 1.04.272zm11.827-7.184c1.066 0 1.925.32 2.576.96.661.64.992 1.589.992 2.848V415h-2.496v-4.544c0-.683-.15-1.189-.448-1.52-.299-.341-.731-.512-1.296-.512-.63 0-1.131.197-1.504.592-.374.384-.56.96-.56 1.728V415h-2.496v-8.608h2.384v1.008a3.22 3.22 0 0 1 1.232-.832 4.183 4.183 0 0 1 1.616-.304zm9.526 5.36-1.2 1.184V415h-2.496v-11.872h2.496v6.72l3.648-3.456h2.976l-3.584 3.648 3.904 4.96h-3.024l-2.72-3.376zm6.804-5.232h2.496V415h-2.496v-8.608zm1.248-1.2c-.458 0-.832-.133-1.12-.4a1.297 1.297 0 0 1-.432-.992c0-.395.144-.725.432-.992.288-.267.662-.4 1.12-.4.459 0 .832.128 1.12.384.288.256.432.576.432.96 0 .416-.144.763-.432 1.04-.288.267-.661.4-1.12.4zm7.037 1.072c1.333 0 2.357.32 3.072.96.714.629 1.072 1.584 1.072 2.864V415h-2.336v-1.072c-.47.8-1.344 1.2-2.624 1.2-.662 0-1.238-.112-1.728-.336-.48-.224-.848-.533-1.104-.928a2.417 2.417 0 0 1-.384-1.344c0-.8.298-1.429.896-1.888.608-.459 1.541-.688 2.8-.688h1.984c0-.544-.166-.96-.496-1.248-.331-.299-.827-.448-1.488-.448-.459 0-.912.075-1.36.224a3.473 3.473 0 0 0-1.12.576l-.896-1.744c.469-.331 1.029-.587 1.68-.768a7.658 7.658 0 0 1 2.032-.272zm-.192 7.184c.426 0 .805-.096 1.136-.288.33-.203.565-.496.704-.88v-.88h-1.712c-1.024 0-1.536.336-1.536 1.008 0 .32.122.576.368.768.256.181.602.272 1.04.272zM350.562 403.8h2.592v9.088h5.616V415h-8.208v-11.2zm13.046 2.464c1.334 0 2.358.32 3.072.96.715.629 1.072 1.584 1.072 2.864V415h-2.336v-1.072c-.469.8-1.344 1.2-2.624 1.2-.661 0-1.237-.112-1.728-.336-.48-.224-.848-.533-1.104-.928a2.417 2.417 0 0 1-.384-1.344c0-.8.299-1.429.896-1.888.608-.459 1.542-.688 2.8-.688h1.984c0-.544-.165-.96-.496-1.248-.33-.299-.826-.448-1.488-.448-.458 0-.912.075-1.36.224-.437.139-.81.331-1.12.576l-.896-1.744c.47-.331 1.03-.587 1.68-.768a7.669 7.669 0 0 1 2.032-.272zm-.192 7.184c.427 0 .806-.096 1.136-.288.331-.203.566-.496.704-.88v-.88h-1.712c-1.024 0-1.536.336-1.536 1.008 0 .32.123.576.368.768.256.181.603.272 1.04.272zm15.287 1.68c-.918 0-1.744-.187-2.48-.56a4.376 4.376 0 0 1-1.712-1.584c-.406-.672-.608-1.435-.608-2.288 0-.853.202-1.616.608-2.288a4.26 4.26 0 0 1 1.712-1.568c.736-.384 1.562-.576 2.48-.576.906 0 1.696.192 2.368.576a3.324 3.324 0 0 1 1.488 1.616l-1.936 1.04c-.448-.789-1.094-1.184-1.936-1.184-.651 0-1.19.213-1.616.64-.427.427-.64 1.008-.64 1.744s.213 1.317.64 1.744c.426.427.965.64 1.616.64.853 0 1.498-.395 1.936-1.184l1.936 1.056a3.432 3.432 0 0 1-1.488 1.6c-.672.384-1.462.576-2.368.576zm8.765-8.864c1.333 0 2.357.32 3.072.96.714.629 1.072 1.584 1.072 2.864V415h-2.336v-1.072c-.47.8-1.344 1.2-2.624 1.2-.662 0-1.238-.112-1.728-.336-.48-.224-.848-.533-1.104-.928a2.417 2.417 0 0 1-.384-1.344c0-.8.298-1.429.896-1.888.608-.459 1.541-.688 2.8-.688h1.984c0-.544-.166-.96-.496-1.248-.331-.299-.827-.448-1.488-.448-.459 0-.912.075-1.36.224a3.473 3.473 0 0 0-1.12.576l-.896-1.744c.469-.331 1.029-.587 1.68-.768a7.658 7.658 0 0 1 2.032-.272zm-.192 7.184c.426 0 .805-.096 1.136-.288.33-.203.565-.496.704-.88v-.88h-1.712c-1.024 0-1.536.336-1.536 1.008 0 .32.122.576.368.768.256.181.602.272 1.04.272zm6.595-7.056h2.496V415h-2.496v-8.608zm1.248-1.2c-.459 0-.832-.133-1.12-.4a1.297 1.297 0 0 1-.432-.992c0-.395.144-.725.432-.992.288-.267.661-.4 1.12-.4.458 0 .832.128 1.12.384.288.256.432.576.432.96 0 .416-.144.763-.432 1.04-.288.267-.662.4-1.12.4zm9.036 9.808-1.888-2.64-1.952 2.64h-2.72l3.312-4.336-3.2-4.272h2.8l1.824 2.512 1.872-2.512h2.656l-3.2 4.208 3.328 4.4h-2.832zm7.36-8.736c1.333 0 2.357.32 3.072.96.714.629 1.072 1.584 1.072 2.864V415h-2.336v-1.072c-.47.8-1.344 1.2-2.624 1.2-.662 0-1.238-.112-1.728-.336-.48-.224-.848-.533-1.104-.928a2.417 2.417 0 0 1-.384-1.344c0-.8.298-1.429.896-1.888.608-.459 1.541-.688 2.8-.688h1.984c0-.544-.166-.96-.496-1.248-.331-.299-.827-.448-1.488-.448-.459 0-.912.075-1.36.224a3.473 3.473 0 0 0-1.12.576l-.896-1.744c.469-.331 1.029-.587 1.68-.768a7.658 7.658 0 0 1 2.032-.272zm-.192 7.184c.426 0 .805-.096 1.136-.288.33-.203.565-.496.704-.88v-.88h-1.712c-1.024 0-1.536.336-1.536 1.008 0 .32.122.576.368.768.256.181.602.272 1.04.272zM450.414 415.192a9.433 9.433 0 0 1-2.576-.352c-.821-.245-1.482-.56-1.984-.944l.88-1.952c.48.352 1.051.635 1.712.848.662.213 1.323.32 1.984.32.736 0 1.28-.107 1.632-.32.352-.224.528-.517.528-.88a.801.801 0 0 0-.32-.656 2.195 2.195 0 0 0-.8-.432c-.32-.107-.757-.224-1.312-.352-.853-.203-1.552-.405-2.096-.608a3.471 3.471 0 0 1-1.408-.976c-.384-.448-.576-1.045-.576-1.792 0-.651.176-1.237.528-1.76.352-.533.88-.955 1.584-1.264.715-.309 1.584-.464 2.608-.464.715 0 1.414.085 2.096.256.683.171 1.28.416 1.792.736l-.8 1.968c-1.034-.587-2.069-.88-3.104-.88-.725 0-1.264.117-1.616.352-.341.235-.512.544-.512.928s.198.672.592.864c.406.181 1.019.363 1.84.544.854.203 1.552.405 2.096.608a3.415 3.415 0 0 1 1.392.96c.395.437.592 1.029.592 1.776a3.06 3.06 0 0 1-.544 1.76c-.352.523-.885.939-1.6 1.248-.714.309-1.584.464-2.608.464zm9.819-8.928c1.334 0 2.358.32 3.072.96.715.629 1.072 1.584 1.072 2.864V415h-2.336v-1.072c-.469.8-1.344 1.2-2.624 1.2-.661 0-1.237-.112-1.728-.336-.48-.224-.848-.533-1.104-.928a2.417 2.417 0 0 1-.384-1.344c0-.8.299-1.429.896-1.888.608-.459 1.542-.688 2.8-.688h1.984c0-.544-.165-.96-.496-1.248-.33-.299-.826-.448-1.488-.448-.458 0-.912.075-1.36.224-.437.139-.81.331-1.12.576l-.896-1.744c.47-.331 1.03-.587 1.68-.768a7.669 7.669 0 0 1 2.032-.272zm-.192 7.184c.427 0 .806-.096 1.136-.288.331-.203.566-.496.704-.88v-.88h-1.712c-1.024 0-1.536.336-1.536 1.008 0 .32.123.576.368.768.256.181.603.272 1.04.272zm11.827-7.184c1.067 0 1.926.32 2.576.96.662.64.992 1.589.992 2.848V415h-2.496v-4.544c0-.683-.149-1.189-.448-1.52-.298-.341-.73-.512-1.296-.512-.629 0-1.13.197-1.504.592-.373.384-.56.96-.56 1.728V415h-2.496v-8.608h2.384v1.008c.331-.363.742-.64 1.232-.832a4.19 4.19 0 0 1 1.616-.304zm11.383 8.32c-.245.181-.549.32-.912.416a4.756 4.756 0 0 1-1.12.128c-1.024 0-1.819-.261-2.384-.784-.555-.523-.832-1.291-.832-2.304v-3.536h-1.328v-1.92h1.328v-2.096h2.496v2.096h2.144v1.92h-2.144v3.504c0 .363.091.645.272.848.192.192.459.288.8.288.395 0 .731-.107 1.008-.32l.672 1.76zm4.873-8.32c1.333 0 2.357.32 3.072.96.715.629 1.072 1.584 1.072 2.864V415h-2.336v-1.072c-.469.8-1.344 1.2-2.624 1.2-.661 0-1.237-.112-1.728-.336-.48-.224-.848-.533-1.104-.928a2.417 2.417 0 0 1-.384-1.344c0-.8.299-1.429.896-1.888.608-.459 1.541-.688 2.8-.688h1.984c0-.544-.165-.96-.496-1.248-.331-.299-.827-.448-1.488-.448-.459 0-.912.075-1.36.224a3.484 3.484 0 0 0-1.12.576l-.896-1.744c.469-.331 1.029-.587 1.68-.768a7.663 7.663 0 0 1 2.032-.272zm-.192 7.184a2.22 2.22 0 0 0 1.136-.288c.331-.203.565-.496.704-.88v-.88h-1.712c-1.024 0-1.536.336-1.536 1.008 0 .32.123.576.368.768.256.181.603.272 1.04.272zm11.827-7.184c1.067 0 1.925.32 2.576.96.661.64.992 1.589.992 2.848V415h-2.496v-4.544c0-.683-.149-1.189-.448-1.52-.299-.341-.731-.512-1.296-.512-.629 0-1.131.197-1.504.592-.373.384-.56.96-.56 1.728V415h-2.496v-8.608h2.384v1.008c.331-.363.741-.64 1.232-.832a4.187 4.187 0 0 1 1.616-.304zm14.692-3.136V415h-2.384v-.992c-.618.747-1.514 1.12-2.688 1.12-.81 0-1.546-.181-2.208-.544a3.92 3.92 0 0 1-1.536-1.552c-.373-.672-.56-1.451-.56-2.336 0-.885.187-1.664.56-2.336a3.92 3.92 0 0 1 1.536-1.552c.662-.363 1.398-.544 2.208-.544 1.099 0 1.958.347 2.576 1.04v-4.176h2.496zm-4.64 9.952c.63 0 1.152-.213 1.568-.64.416-.437.624-1.019.624-1.744 0-.725-.208-1.301-.624-1.728-.416-.437-.938-.656-1.568-.656-.64 0-1.168.219-1.584.656-.416.427-.624 1.003-.624 1.728 0 .725.208 1.307.624 1.744.416.427.944.64 1.584.64zm15.382-2.352c0 .032-.016.256-.048.672h-6.512c.118.533.395.955.832 1.264.438.309.982.464 1.632.464a3.36 3.36 0 0 0 1.184-.192c.352-.139.678-.352.976-.64l1.328 1.44c-.81.928-1.994 1.392-3.552 1.392-.97 0-1.829-.187-2.576-.56-.746-.384-1.322-.912-1.728-1.584-.405-.672-.608-1.435-.608-2.288 0-.843.198-1.6.592-2.272a4.203 4.203 0 0 1 1.648-1.584c.704-.384 1.488-.576 2.352-.576.843 0 1.606.181 2.288.544a3.903 3.903 0 0 1 1.6 1.568c.395.672.592 1.456.592 2.352zm-4.464-2.576c-.565 0-1.04.16-1.424.48-.384.32-.618.757-.704 1.312h4.24c-.085-.544-.32-.976-.704-1.296-.384-.331-.853-.496-1.408-.496zm8.51-.624a2.784 2.784 0 0 1 1.2-.944c.512-.213 1.099-.32 1.76-.32v2.304a9.276 9.276 0 0 0-.56-.032c-.715 0-1.275.203-1.68.608-.405.395-.608.992-.608 1.792V415h-2.496v-8.608h2.384v1.136z" fill="#152825"/>
</svg>
