<svg width="270" height="50" viewBox="0 0 270 50" fill="none" xmlns="http://www.w3.org/2000/svg">
<path d="M83.8584 50C79.3502 50 75.4112 48.9754 72.0415 46.9262C68.6717 44.877 66.0533 42.031 64.1863 38.388C62.3193 34.6995 61.3857 30.4189 61.3857 25.5464C61.3857 20.6284 62.342 16.3024 64.2546 12.5683C66.2127 8.78871 68.9677 5.85155 72.5196 3.75683C76.1171 1.61658 80.3748 0.546449 85.2928 0.546449C90.8939 0.546449 95.5387 1.8898 99.2273 4.5765C102.916 7.2632 105.307 10.9745 106.399 15.7104H96.6316C95.903 13.4791 94.5825 11.7486 92.6699 10.5191C90.7573 9.24408 88.2983 8.60656 85.2928 8.60656C80.5114 8.60656 76.8229 10.1321 74.2273 13.1831C71.6316 16.1885 70.3338 20.3324 70.3338 25.6148C70.3338 30.8971 71.6089 34.9954 74.159 37.9098C76.7546 40.7787 80.261 42.2131 84.6781 42.2131C89.0041 42.2131 92.2601 41.0519 94.4459 38.7295C96.6772 36.3616 98.0205 33.265 98.4759 29.4399H86.3857V22.8825H107.287V49.1803H99.2273L98.5442 42.8962C96.9959 45.173 95.0606 46.9262 92.7382 48.1557C90.4158 49.3852 87.4559 50 83.8584 50Z" fill="#104944"/>
<path d="M128.629 50C125.213 50 122.185 49.2714 119.544 47.8142C116.903 46.357 114.831 44.3078 113.328 41.6667C111.825 39.0255 111.074 35.9745 111.074 32.5137C111.074 29.0073 111.803 25.888 113.26 23.1557C114.763 20.4235 116.812 18.306 119.407 16.8033C122.049 15.255 125.145 14.4809 128.697 14.4809C132.021 14.4809 134.958 15.2095 137.509 16.6667C140.059 18.1239 142.039 20.1275 143.451 22.6776C144.908 25.1821 145.637 27.9827 145.637 31.0792C145.637 31.5801 145.614 32.1038 145.569 32.6503C145.569 33.1967 145.546 33.7659 145.5 34.3579H119.749C119.931 36.9991 120.842 39.071 122.481 40.5738C124.166 42.0765 126.192 42.8279 128.56 42.8279C130.336 42.8279 131.816 42.4408 133 41.6667C134.23 40.847 135.141 39.7996 135.733 38.5246H144.612C143.975 40.6648 142.905 42.623 141.402 44.3989C139.945 46.1293 138.123 47.4954 135.937 48.4973C133.797 49.4991 131.361 50 128.629 50ZM128.697 21.5847C126.557 21.5847 124.667 22.1995 123.028 23.429C121.388 24.6129 120.341 26.4344 119.886 28.8934H136.757C136.621 26.6621 135.801 24.8862 134.298 23.5656C132.795 22.245 130.928 21.5847 128.697 21.5847Z" fill="#104944"/>
<path d="M164.07 49.1803C160.519 49.1803 157.672 48.3151 155.532 46.5847C153.392 44.8543 152.322 41.7805 152.322 37.3634V22.6093H146.516V15.3005H152.322L153.346 6.21585H161.065V15.3005H170.218V22.6093H161.065V37.4317C161.065 39.071 161.407 40.2095 162.09 40.847C162.818 41.439 164.048 41.735 165.778 41.735H170.013V49.1803H164.07Z" fill="#104944"/>
<path d="M174.309 49.1803V0H183.053V49.1803H174.309Z" fill="#104944"/>
<path d="M193.284 10.041C191.69 10.041 190.37 9.56284 189.322 8.60656C188.321 7.65027 187.82 6.44353 187.82 4.98634C187.82 3.52914 188.321 2.34517 189.322 1.43442C190.37 0.478141 191.69 0 193.284 0C194.878 0 196.176 0.478141 197.178 1.43442C198.225 2.34517 198.749 3.52914 198.749 4.98634C198.749 6.44353 198.225 7.65027 197.178 8.60656C196.176 9.56284 194.878 10.041 193.284 10.041ZM188.913 49.1803V15.3005H197.656V49.1803H188.913Z" fill="#104944"/>
<path d="M204.937 49.1803V22.6093H200.292V15.3005H204.937V11.3388C204.937 7.24044 205.962 4.32605 208.011 2.59563C210.106 0.865209 212.929 0 216.481 0H220.238V7.44536H217.847C216.344 7.44536 215.274 7.74135 214.637 8.33333C213.999 8.92532 213.68 9.92714 213.68 11.3388V15.3005H220.989V22.6093H213.68V49.1803H204.937Z" fill="#104944"/>
<path d="M239.626 50C236.211 50 233.182 49.2714 230.541 47.8142C227.9 46.357 225.828 44.3078 224.325 41.6667C222.823 39.0255 222.071 35.9745 222.071 32.5137C222.071 29.0073 222.8 25.888 224.257 23.1557C225.76 20.4235 227.809 18.306 230.405 16.8033C233.046 15.255 236.142 14.4809 239.694 14.4809C243.019 14.4809 245.956 15.2095 248.506 16.6667C251.056 18.1239 253.037 20.1275 254.448 22.6776C255.906 25.1821 256.634 27.9827 256.634 31.0792C256.634 31.5801 256.611 32.1038 256.566 32.6503C256.566 33.1967 256.543 33.7659 256.498 34.3579H230.746C230.928 36.9991 231.839 39.071 233.478 40.5738C235.163 42.0765 237.19 42.8279 239.558 42.8279C241.334 42.8279 242.814 42.4408 243.998 41.6667C245.227 40.847 246.138 39.7996 246.73 38.5246H255.61C254.972 40.6648 253.902 42.623 252.399 44.3989C250.942 46.1293 249.121 47.4954 246.935 48.4973C244.794 49.4991 242.358 50 239.626 50ZM239.694 21.5847C237.554 21.5847 235.664 22.1995 234.025 23.429C232.386 24.6129 231.338 26.4344 230.883 28.8934H247.754C247.618 26.6621 246.798 24.8862 245.295 23.5656C243.793 22.245 241.926 21.5847 239.694 21.5847Z" fill="#104944"/>
<path d="M264.329 49.6585C262.735 49.6585 261.415 49.1576 260.368 48.1557C259.366 47.1539 258.865 45.9472 258.865 44.5355C258.865 43.0783 259.366 41.8488 260.368 40.847C261.415 39.8452 262.735 39.3443 264.329 39.3443C265.923 39.3443 267.221 39.8452 268.223 40.847C269.27 41.8488 269.794 43.0783 269.794 44.5355C269.794 45.9472 269.27 47.1539 268.223 48.1557C267.221 49.1576 265.923 49.6585 264.329 49.6585Z" fill="#104944"/>
<path d="M14.5918 47.5141C19.6696 49.2133 25.6957 50.2561 30.607 48.0252C32.024 47.363 33.3458 46.5143 34.5378 45.5017C37.9948 42.4633 40.652 38.6212 42.274 34.3136C46.1007 24.763 46.6015 12.1991 40.1575 3.73245L40.1473 3.72217L14.5918 47.5141Z" fill="#104944"/>
<path d="M8.07646 45.2447C10.2579 46.5126 12.6798 47.3124 15.1872 47.5927C23.1729 48.5018 29.8702 42.639 34.0293 35.507C36.5 31.094 38.4127 26.3911 39.7223 21.5061C40.9734 17.1272 41.9121 12.4686 41.4646 8.15975C41.1933 5.56042 40.3177 2.90902 38.0887 1.60389L37.9344 1.51388L37.9498 1.52352L37.7955 1.43866C35.562 0.134169 32.6 0.544352 29.9454 1.43866C25.4835 3.1379 21.3354 5.56621 17.6701 8.62458C13.5207 11.7627 9.75449 15.3772 6.44794 19.3935C1.27307 25.9314 -1.57314 34.0444 2.74408 40.3238C4.14243 42.34 5.96833 44.0225 8.09189 45.2518L8.07646 45.2447Z" fill="#B9DFBE"/>
<path d="M10.4197 41.8276C8.67998 40.8247 7.1839 39.4482 6.04078 37.7965C1.99809 31.9054 6.99488 24.416 9.32483 21.4676C12.3871 17.7567 15.8743 14.4193 19.7151 11.5235C22.3973 9.42891 26.4343 6.48818 30.6145 5.08211C32.126 4.57549 34.2014 4.12352 35.4615 4.85966L35.7534 5.03068C37.0155 5.76811 37.4649 7.69366 37.6198 9.18074C38.0371 13.2723 36.9068 17.9078 36.0157 21.0388C34.8109 25.5604 33.048 29.9143 30.7675 33.9994C28.8909 37.2128 23.7231 44.6025 16.2388 43.7506C14.1866 43.523 12.2038 42.8679 10.4197 41.8276V41.8276Z" fill="#F9EAB0"/>
<path d="M26.0053 31.6433C23.4246 35.4224 18.5757 36.8748 15.1734 34.8862C11.771 32.8983 11.1069 28.2236 13.685 24.4439C16.2638 20.6641 21.1153 19.213 24.5176 21.201C27.9199 23.1895 28.586 27.8648 26.0053 31.6433Z" fill="#7F6E5D"/>
<path d="M15.7833 30.3035C15.7453 30.3035 15.7074 30.3009 15.6695 30.297C15.0979 30.2347 14.6851 29.7216 14.7462 29.1501C15.3171 23.88 19.4267 22.915 21.5233 23.1381C22.0961 23.1985 22.5114 23.7116 22.4504 24.2844C22.3906 24.8573 21.8769 25.2726 21.304 25.2115C20.8874 25.1704 17.298 24.9646 16.8209 29.3751C16.7624 29.9042 16.315 30.3035 15.7833 30.3035Z" fill="#CBB292"/>
</svg>
