<svg width="24" height="24" viewBox="0 0 24 24" fill="none" xmlns="http://www.w3.org/2000/svg">
<path d="M21.8182 0H2.18182C0.976364 0 0 0.976364 0 2.18182V21.8182C0 23.0236 0.976364 24 2.18182 24H21.8182C23.0236 24 24 23.0236 24 21.8182V2.18182C24 0.976364 23.0236 0 21.8182 0ZM7.58618 19.6364H4.368V9.28146H7.58618V19.6364ZM5.94436 7.80109C4.90691 7.80109 4.068 6.96 4.068 5.92473C4.068 4.88945 4.908 4.04945 5.94436 4.04945C6.97855 4.04945 7.81964 4.89055 7.81964 5.92473C7.81964 6.96 6.97855 7.80109 5.94436 7.80109ZM19.6407 19.6364H16.4247V14.6007C16.4247 13.3996 16.4029 11.8549 14.7524 11.8549C13.0778 11.8549 12.8204 13.1629 12.8204 14.5135V19.6364H9.60436V9.28146H12.6916V10.6964H12.7353C13.1651 9.88255 14.2145 9.024 15.78 9.024C19.0385 9.024 19.6407 11.1687 19.6407 13.9571V19.6364V19.6364Z" fill="white"/>
</svg>
