<svg width="309" height="36" viewBox="0 0 309 36" fill="none" xmlns="http://www.w3.org/2000/svg">
<path d="M309 8H281V35.4238H309V8Z" fill="#C4C4C4"/>
<path d="M295 8H281V35.4238H295V8Z" fill="#00B67A"/>
<path d="M295.059 26.1384L299.364 25.0627L301.165 30.4844L295.059 26.1384ZM304.958 19.1247H297.387L295.059 12.1396L292.716 19.1247H285.145L291.281 23.4276L288.952 30.3983L295.073 26.0954L298.852 23.442L304.958 19.1247Z" fill="white"/>
<path d="M159 8H187V35.4238H159V8ZM189.333 8H217.333V35.4238H189.333V8ZM219.667 8H247.667V35.4238H219.667V8ZM250 8H278V35.4238H250V8Z" fill="#00B67A"/>
<path d="M173.001 26.4818L177.26 25.4249L179.039 30.7954L173.001 26.4818ZM182.801 19.5401H175.305L173.001 12.627L170.697 19.5401H163.201L169.268 23.8251L166.964 30.7383L173.03 26.4533L176.764 23.8251L182.801 19.5401ZM203.335 26.4818L207.593 25.4249L209.372 30.7954L203.335 26.4818ZM213.135 19.5401H205.639L203.335 12.627L201.03 19.5401H193.535L199.601 23.8251L197.297 30.7383L203.364 26.4533L207.097 23.8251L213.135 19.5401ZM233.668 26.4818L237.926 25.4249L239.705 30.7954L233.668 26.4818ZM243.468 19.5401H235.972L233.668 12.627L231.364 19.5401H223.868L229.935 23.8251L227.63 30.7383L233.697 26.4533L237.43 23.8251L243.468 19.5401ZM264.001 26.4818L268.26 25.4249L270.039 30.7954L264.001 26.4818ZM273.801 19.5401H266.305L264.001 12.627L261.697 19.5401H254.201L260.268 23.8251L257.964 30.7383L264.03 26.4533L267.764 23.8251L273.801 19.5401Z" fill="white"/>
<path d="M38.542 12.4956L53.377 12.4956L53.377 15.2006L47.5359 15.2006L47.5359 30.4488L44.3343 30.4488L44.3343 15.2006L38.5176 15.2005L38.542 12.4956ZM52.7416 17.4507L55.4789 17.4507L55.4789 19.9641L55.5278 19.9641C55.6255 19.6051 55.7966 19.2699 56.041 18.9348C56.2854 18.5997 56.5787 18.2885 56.9453 18.0252C57.2874 17.7379 57.6785 17.5225 58.1184 17.3549C58.5339 17.1874 58.9738 17.0916 59.4137 17.0916C59.7559 17.0916 60.0003 17.1156 60.1225 17.1156C60.2447 17.1395 60.3913 17.1634 60.5135 17.1634L60.5135 19.9163C60.318 19.8684 60.098 19.8444 59.8781 19.8205C59.6581 19.7966 59.4626 19.7726 59.2426 19.7726C58.7538 19.7726 58.2895 19.8684 57.8496 20.0599C57.4096 20.2514 57.043 20.5386 56.7009 20.8977C56.3832 21.2807 56.1143 21.7355 55.9188 22.2861C55.7233 22.8366 55.6255 23.483 55.6255 24.2011L55.6255 30.377L52.6927 30.377L52.7416 17.4507ZM73.9555 30.4488L71.0715 30.4488L71.0715 28.6295L71.0227 28.6295C70.6561 29.2998 70.1184 29.8025 69.4096 30.2094C68.7009 30.6164 67.9677 30.8079 67.2345 30.8079C65.4992 30.8079 64.2284 30.4009 63.4463 29.5392C62.6642 28.7013 62.2732 27.4087 62.2732 25.7092L62.2732 17.4507L65.206 17.4507L65.206 25.4219C65.206 26.5709 65.4259 27.3848 65.8903 27.8396C66.3302 28.3183 66.9656 28.5577 67.7722 28.5577C68.3831 28.5577 68.8964 28.462 69.3119 28.2705C69.7273 28.079 70.0695 27.8396 70.3139 27.5284C70.5827 27.2172 70.7538 26.8342 70.876 26.4033C70.9982 25.9725 71.0471 25.4937 71.0471 24.991L71.0471 17.4507L73.9799 17.4507L73.9799 30.4488L73.9555 30.4488ZM78.9412 26.2837C79.039 27.1215 79.3567 27.696 79.9188 28.055C80.4809 28.3902 81.1652 28.5577 81.9473 28.5577C82.2161 28.5577 82.5339 28.5338 82.876 28.4859C83.2182 28.438 83.5603 28.3662 83.8536 28.2465C84.1713 28.1269 84.4157 27.9593 84.6113 27.7199C84.8068 27.4805 84.9045 27.1933 84.8801 26.8342C84.8557 26.4752 84.7335 26.164 84.4646 25.9246C84.1958 25.6852 83.8781 25.5177 83.487 25.3501C83.096 25.2065 82.6316 25.0868 82.1184 24.991C81.6051 24.8953 81.0919 24.7756 80.5542 24.6559C80.0166 24.5362 79.4789 24.3926 78.9656 24.225C78.4524 24.0575 78.0125 23.842 77.597 23.5308C77.206 23.2436 76.8638 22.8845 76.6438 22.4297C76.3994 21.9749 76.2772 21.4483 76.2772 20.778C76.2772 20.0599 76.4483 19.4854 76.8149 19.0066C77.1571 18.5279 77.6214 18.1449 78.1591 17.8576C78.6968 17.5704 79.3078 17.3549 79.9677 17.2352C80.6276 17.1156 81.263 17.0677 81.8495 17.0677C82.5339 17.0677 83.1937 17.1395 83.8047 17.2831C84.4157 17.4268 85.0023 17.6422 85.4911 17.9773C86.0043 18.2885 86.4198 18.7194 86.7375 19.2221C87.0797 19.7248 87.2752 20.3471 87.373 21.0653L84.318 21.0653C84.1713 20.3711 83.8536 19.9163 83.3648 19.6769C82.8516 19.4375 82.2895 19.3178 81.6296 19.3178C81.4341 19.3178 81.1652 19.3418 80.8964 19.3657C80.6031 19.4136 80.3587 19.4614 80.0899 19.5572C79.8455 19.6529 79.6255 19.7966 79.4544 19.9641C79.2834 20.1317 79.1856 20.3711 79.1856 20.6583C79.1856 21.0174 79.3078 21.2807 79.5522 21.4961C79.7966 21.7116 80.1143 21.8791 80.5298 22.0467C80.9208 22.1903 81.3852 22.31 81.8984 22.4058C82.4117 22.5015 82.9493 22.6212 83.487 22.7409C84.0247 22.8606 84.5379 23.0042 85.0512 23.1718C85.5644 23.3393 86.0288 23.5548 86.4198 23.866C86.8109 24.1532 87.153 24.5123 87.3974 24.9432C87.6418 25.374 87.764 25.9246 87.764 26.547C87.764 27.313 87.5929 27.9593 87.2263 28.5099C86.8597 29.0365 86.3954 29.4913 85.8333 29.8264C85.2711 30.1615 84.6113 30.4009 83.9269 30.5685C83.2182 30.7121 82.5339 30.8079 81.8495 30.8079C81.0186 30.8079 80.2365 30.7121 79.5278 30.5206C78.819 30.3291 78.1836 30.0419 77.6703 29.6828C77.1571 29.2998 76.7416 28.845 76.4483 28.2705C76.155 27.7199 75.984 27.0497 75.9595 26.2597L78.9168 26.2597L78.9168 26.2837L78.9412 26.2837ZM88.595 17.4507L90.819 17.4507L90.819 13.5249L93.7518 13.5249L93.7518 17.4267L96.3913 17.4267L96.3913 19.5572L93.7518 19.5572L93.7518 26.4991C93.7518 26.8103 93.7762 27.0497 93.8007 27.289C93.8251 27.5045 93.8984 27.696 93.9717 27.8396C94.0695 27.9832 94.2161 28.1029 94.3872 28.1747C94.5827 28.2465 94.8271 28.2944 95.1693 28.2944C95.3648 28.2944 95.5848 28.2944 95.7803 28.2705C95.9758 28.2465 96.1958 28.2226 96.3913 28.1747L96.3913 30.4009C96.0736 30.4488 95.7559 30.4727 95.4381 30.4967C95.1204 30.5445 94.8271 30.5445 94.485 30.5445C93.7029 30.5445 93.0919 30.4727 92.6276 30.3291C92.1632 30.1855 91.7966 29.97 91.5278 29.7067C91.2589 29.4195 91.0878 29.0844 90.9901 28.6774C90.8923 28.2705 90.8434 27.7678 90.819 27.2412L90.819 19.5811L88.595 19.5811L88.595 17.4028L88.595 17.4507ZM98.4442 17.4507L101.206 17.4507L101.206 19.2221L101.255 19.2221C101.67 18.4561 102.232 17.9294 102.966 17.5943C103.699 17.2592 104.481 17.0916 105.361 17.0916C106.412 17.0916 107.316 17.2592 108.098 17.6422C108.88 18.0013 109.516 18.48 110.029 19.1263C110.542 19.7487 110.933 20.4908 111.177 21.3286C111.422 22.1664 111.568 23.076 111.568 24.0096C111.568 24.8953 111.446 25.7331 111.226 26.547C110.982 27.3608 110.64 28.1029 110.175 28.7253C109.711 29.3477 109.124 29.8504 108.391 30.2334C107.658 30.6164 106.827 30.8079 105.85 30.8079C105.434 30.8079 104.994 30.76 104.579 30.6882C104.163 30.6164 103.748 30.4967 103.357 30.3291C102.966 30.1616 102.599 29.9461 102.281 29.6828C101.939 29.4195 101.67 29.1083 101.45 28.7732L101.401 28.7732L101.401 35.2602L98.4687 35.2602L98.4687 17.4507L98.4442 17.4507ZM108.685 23.9617C108.685 23.3872 108.611 22.8127 108.44 22.2621C108.294 21.7116 108.049 21.2328 107.731 20.8019C107.414 20.3711 107.023 20.0359 106.583 19.7726C106.118 19.5093 105.581 19.3896 104.994 19.3896C103.772 19.3896 102.843 19.7966 102.208 20.6344C101.597 21.4722 101.279 22.5973 101.279 23.9857C101.279 24.6559 101.353 25.2543 101.524 25.8049C101.695 26.3555 101.915 26.8342 102.257 27.2412C102.575 27.6481 102.966 27.9593 103.43 28.1987C103.894 28.438 104.408 28.5577 105.019 28.5577C105.703 28.5577 106.241 28.4141 106.705 28.1508C107.169 27.8875 107.536 27.5284 107.854 27.1215C108.147 26.6906 108.367 26.2118 108.489 25.6613C108.611 25.0868 108.685 24.5362 108.685 23.9617ZM113.841 12.4956L116.774 12.4956L116.774 15.2006L113.841 15.2006L113.841 12.4956ZM113.841 17.4507L116.774 17.4507L116.774 30.4488L113.841 30.4488L113.841 17.4507ZM119.389 12.4956L122.322 12.4956L122.322 30.4488L119.389 30.4488L119.389 12.4956ZM131.267 30.8079C130.216 30.8079 129.263 30.6403 128.432 30.2812C127.601 29.9222 126.917 29.4674 126.33 28.8689C125.768 28.2705 125.328 27.5284 125.035 26.6906C124.742 25.8528 124.571 24.9192 124.571 23.9378C124.571 22.9563 124.717 22.0467 125.035 21.2089C125.328 20.3711 125.768 19.6529 126.33 19.0306C126.892 18.4321 127.601 17.9534 128.432 17.6183C129.263 17.2831 130.216 17.0916 131.267 17.0916C132.318 17.0916 133.271 17.2592 134.102 17.6183C134.933 17.9534 135.617 18.4321 136.204 19.0306C136.766 19.629 137.206 20.3711 137.499 21.2089C137.793 22.0467 137.964 22.9563 137.964 23.9378C137.964 24.9432 137.817 25.8528 137.499 26.6906C137.182 27.5284 136.766 28.2465 136.204 28.8689C135.642 29.4674 134.933 29.9461 134.102 30.2812C133.271 30.6164 132.342 30.8079 131.267 30.8079ZM131.267 28.5338C131.902 28.5338 132.489 28.3902 132.953 28.1269C133.442 27.8635 133.809 27.5045 134.127 27.0736C134.444 26.6427 134.664 26.14 134.811 25.6134C134.957 25.0628 135.031 24.5123 135.031 23.9378C135.031 23.3872 134.957 22.8366 134.811 22.2861C134.664 21.7355 134.444 21.2568 134.127 20.8259C133.809 20.395 133.418 20.0599 132.953 19.7966C132.465 19.5333 131.902 19.3896 131.267 19.3896C130.632 19.3896 130.045 19.5333 129.581 19.7966C129.092 20.0599 128.725 20.419 128.408 20.8259C128.09 21.2568 127.87 21.7355 127.723 22.2861C127.577 22.8366 127.503 23.3872 127.503 23.9378C127.503 24.5123 127.577 25.0628 127.723 25.6134C127.87 26.164 128.09 26.6427 128.408 27.0736C128.725 27.5045 129.116 27.8635 129.581 28.1269C130.07 28.4141 130.632 28.5338 131.267 28.5338ZM138.843 17.4507L141.067 17.4507L141.067 13.5249L144 13.5249L144 17.4268L146.64 17.4268L146.64 19.5572L144 19.5572L144 26.4991C144 26.8103 144.025 27.0497 144.049 27.289C144.074 27.5045 144.147 27.696 144.22 27.8396C144.318 27.9832 144.465 28.1029 144.636 28.1747C144.831 28.2465 145.076 28.2944 145.418 28.2944C145.613 28.2944 145.833 28.2944 146.029 28.2705C146.224 28.2465 146.444 28.2226 146.64 28.1747L146.64 30.4009C146.322 30.4488 146.004 30.4727 145.687 30.4967C145.369 30.5445 145.076 30.5446 144.733 30.5446C143.951 30.5446 143.34 30.4727 142.876 30.3291C142.412 30.1855 142.045 29.9701 141.776 29.7067C141.507 29.4195 141.336 29.0844 141.239 28.6774C141.141 28.2705 141.092 27.7678 141.067 27.2412L141.067 19.5811L138.843 19.5811L138.843 17.4028L138.843 17.4507Z" fill="black"/>
<path d="M35.1202 12.4954L21.7026 12.4954L17.5723 1.50464e-06L13.4175 12.4954L-1.11317e-06 12.4715L10.8513 20.2033L6.69653 32.6987L17.5479 24.9669L28.3992 32.6987L24.2688 20.2033L35.1202 12.4954Z" fill="#00B67A"/>
<path d="M25.1985 23.0281L24.2698 20.2031L17.5732 24.9673L25.1985 23.0281Z" fill="#005128"/>
</svg>
