<svg width="24" height="20" viewBox="0 0 24 20" fill="none" xmlns="http://www.w3.org/2000/svg">
<path d="M24 2.30853C23.1166 2.70082 22.1678 2.96481 21.1718 3.08388C22.189 2.47467 22.969 1.5101 23.3363 0.359986C22.3856 0.923965 21.3315 1.33379 20.2091 1.55532C19.3109 0.598131 18.0316 0 16.6157 0C13.8964 0 11.6922 2.20515 11.6922 4.9235C11.6922 5.30934 11.7365 5.68594 11.8195 6.045C7.7277 5.84008 4.10015 3.87954 1.67071 0.899965C1.24795 1.62732 1.00519 2.47283 1.00519 3.37649C1.00519 5.08411 1.87377 6.59144 3.19465 7.47387C2.38791 7.44802 1.62825 7.22649 0.964578 6.8582C0.964578 6.87943 0.964578 6.89881 0.964578 6.92004C0.964578 9.3061 2.66113 11.2962 4.91427 11.7475C4.50167 11.8602 4.066 11.9202 3.61648 11.9202C3.29987 11.9202 2.99065 11.8888 2.69067 11.8325C3.31741 13.7884 5.1358 15.2126 7.29018 15.2523C5.60563 16.5732 3.48264 17.3606 1.17503 17.3606C0.778124 17.3606 0.385831 17.3375 0 17.2913C2.1793 18.6879 4.76659 19.5029 7.54771 19.5029C16.6046 19.5029 21.5558 12.0005 21.5558 5.49394C21.5558 5.28072 21.5512 5.06842 21.5419 4.85704C22.5047 4.16199 23.34 3.29526 24 2.30853Z" fill="white"/>
</svg>
