<svg width="24" height="19" viewBox="0 0 24 19" fill="none" xmlns="http://www.w3.org/2000/svg">
<path d="M23.2536 2.59587C22.9805 1.57462 22.1754 0.7695 21.1541 0.496375C19.3016 2.47732e-07 11.875 0 11.875 0C11.875 0 4.44837 2.47732e-07 2.59587 0.496375C1.57462 0.7695 0.7695 1.57462 0.496375 2.59587C-3.53903e-08 4.44837 0 9.5 0 9.5C0 9.5 -3.53903e-08 14.5516 0.496375 16.4041C0.7695 17.4254 1.57462 18.2305 2.59587 18.5036C4.44837 19 11.875 19 11.875 19C11.875 19 19.3016 19 21.1541 18.5036C22.1766 18.2305 22.9805 17.4254 23.2536 16.4041C23.75 14.5516 23.75 9.5 23.75 9.5C23.75 9.5 23.75 4.44837 23.2536 2.59587ZM9.5 13.6135V5.3865L16.625 9.5L9.5 13.6135Z" fill="white"/>
</svg>
